<svg width="200" height="50" viewBox="0 0 200 50" fill="none" xmlns="http://www.w3.org/2000/svg">
<rect width="200" height="50" rx="10" fill="#1A1C1A"/>
<g clip-path="url(#clip0_2_1032)">
<path d="M50.6017 30.3594C54.6592 28.1315 57.7351 26.4339 58.0002 26.3019C58.8484 25.8509 59.7242 24.6571 58.0002 23.7299C57.4436 23.4382 54.4467 21.7935 50.6017 19.6724L45.2715 25.0555L50.6017 30.3592V30.3594Z" fill="#FFD900"/>
<path d="M45.2714 25.0554L28.2993 42.1608C28.6977 42.2135 29.1474 42.1079 29.6777 41.8164C30.7909 41.207 42.5924 34.7622 50.6017 30.3605L45.2714 25.0554Z" fill="#F43249"/>
<path d="M45.2715 25.0555L50.6017 19.6989C50.6017 19.6989 30.8714 8.93123 29.6777 8.29561C29.2279 8.02923 28.7239 7.95011 28.2729 8.02923L45.2715 25.0555V25.0555Z" fill="#00EE76"/>
<path d="M45.2714 25.0555L28.2729 8.0293C27.583 8.1888 27 8.7983 27 10.0448V40.1454C27 41.2863 27.4511 42.108 28.2993 42.1873L45.2714 25.0555Z" fill="#00D3FF"/>
</g>
<path d="M75.082 12.866V16.166C74.65 16.478 74.188 16.712 73.696 16.868C73.208 17.02 72.672 17.096 72.088 17.096C71.396 17.096 70.772 16.99 70.216 16.778C69.66 16.562 69.184 16.262 68.788 15.878C68.396 15.49 68.094 15.026 67.882 14.486C67.67 13.946 67.564 13.352 67.564 12.704C67.564 12.048 67.666 11.45 67.87 10.91C68.078 10.37 68.372 9.908 68.752 9.524C69.132 9.136 69.594 8.836 70.138 8.624C70.682 8.412 71.29 8.306 71.962 8.306C72.302 8.306 72.618 8.332 72.91 8.384C73.202 8.432 73.472 8.504 73.72 8.6C73.968 8.692 74.198 8.806 74.41 8.942C74.622 9.074 74.82 9.224 75.004 9.392L74.674 9.92C74.622 10 74.554 10.052 74.47 10.076C74.39 10.096 74.3 10.076 74.2 10.016C74.104 9.96 73.994 9.892 73.87 9.812C73.746 9.732 73.594 9.656 73.414 9.584C73.238 9.508 73.028 9.444 72.784 9.392C72.544 9.34 72.258 9.314 71.926 9.314C71.442 9.314 71.004 9.394 70.612 9.554C70.22 9.71 69.886 9.936 69.61 10.232C69.334 10.524 69.122 10.88 68.974 11.3C68.826 11.716 68.752 12.184 68.752 12.704C68.752 13.244 68.828 13.728 68.98 14.156C69.136 14.58 69.356 14.942 69.64 15.242C69.928 15.538 70.276 15.764 70.684 15.92C71.092 16.076 71.55 16.154 72.058 16.154C72.458 16.154 72.812 16.11 73.12 16.022C73.432 15.93 73.736 15.804 74.032 15.644V13.754H72.694C72.618 13.754 72.556 13.732 72.508 13.688C72.464 13.644 72.442 13.59 72.442 13.526V12.866H75.082ZM82.1676 16.052L82.1616 17H76.8636V8.402H82.1616V9.35H78.0276V12.206H81.3756V13.118H78.0276V16.052H82.1676ZM89.6034 9.38H86.8194V17H85.6614V9.38H82.8714V8.402H89.6034V9.38ZM94.7503 17H93.5863V8.402H94.7503V17ZM102.764 9.38H99.9796V17H98.8216V9.38H96.0316V8.402H102.764V9.38ZM114.69 12.704C114.69 13.348 114.588 13.94 114.384 14.48C114.18 15.016 113.892 15.478 113.52 15.866C113.148 16.254 112.7 16.556 112.176 16.772C111.656 16.984 111.08 17.09 110.448 17.09C109.816 17.09 109.24 16.984 108.72 16.772C108.2 16.556 107.754 16.254 107.382 15.866C107.01 15.478 106.722 15.016 106.518 14.48C106.314 13.94 106.212 13.348 106.212 12.704C106.212 12.06 106.314 11.47 106.518 10.934C106.722 10.394 107.01 9.93 107.382 9.542C107.754 9.15 108.2 8.846 108.72 8.63C109.24 8.414 109.816 8.306 110.448 8.306C111.08 8.306 111.656 8.414 112.176 8.63C112.7 8.846 113.148 9.15 113.52 9.542C113.892 9.93 114.18 10.394 114.384 10.934C114.588 11.47 114.69 12.06 114.69 12.704ZM113.496 12.704C113.496 12.176 113.424 11.702 113.28 11.282C113.136 10.862 112.932 10.508 112.668 10.22C112.404 9.928 112.084 9.704 111.708 9.548C111.332 9.392 110.912 9.314 110.448 9.314C109.988 9.314 109.57 9.392 109.194 9.548C108.818 9.704 108.496 9.928 108.228 10.22C107.964 10.508 107.76 10.862 107.616 11.282C107.472 11.702 107.4 12.176 107.4 12.704C107.4 13.232 107.472 13.706 107.616 14.126C107.76 14.542 107.964 14.896 108.228 15.188C108.496 15.476 108.818 15.698 109.194 15.854C109.57 16.006 109.988 16.082 110.448 16.082C110.912 16.082 111.332 16.006 111.708 15.854C112.084 15.698 112.404 15.476 112.668 15.188C112.932 14.896 113.136 14.542 113.28 14.126C113.424 13.706 113.496 13.232 113.496 12.704ZM123.322 8.402V17H122.74C122.648 17 122.57 16.984 122.506 16.952C122.446 16.92 122.386 16.866 122.326 16.79L117.352 10.31C117.36 10.41 117.366 10.508 117.37 10.604C117.374 10.7 117.376 10.79 117.376 10.874V17H116.356V8.402H116.956C117.008 8.402 117.052 8.406 117.088 8.414C117.124 8.418 117.156 8.428 117.184 8.444C117.212 8.456 117.24 8.476 117.268 8.504C117.296 8.528 117.326 8.56 117.358 8.6L122.332 15.074C122.324 14.97 122.316 14.87 122.308 14.774C122.304 14.674 122.302 14.58 122.302 14.492V8.402H123.322Z" fill="white"/>
<path d="M80.5 33.91V39.61C79.0667 40.6433 77.4 41.16 75.5 41.16C74.3333 41.16 73.2767 40.98 72.33 40.62C71.39 40.2533 70.5867 39.7467 69.92 39.1C69.2533 38.4467 68.74 37.67 68.38 36.77C68.02 35.87 67.84 34.88 67.84 33.8C67.84 32.7133 68.0133 31.72 68.36 30.82C68.7067 29.9133 69.2033 29.1367 69.85 28.49C70.4967 27.8367 71.2767 27.3333 72.19 26.98C73.1033 26.62 74.13 26.44 75.27 26.44C75.85 26.44 76.3867 26.4867 76.88 26.58C77.38 26.6667 77.8433 26.79 78.27 26.95C78.6967 27.11 79.09 27.3033 79.45 27.53C79.81 27.7567 80.14 28.01 80.44 28.29L79.77 29.36C79.6633 29.5267 79.5267 29.63 79.36 29.67C79.1933 29.71 79.0133 29.67 78.82 29.55C78.6267 29.4367 78.42 29.3167 78.2 29.19C77.9867 29.0633 77.74 28.9467 77.46 28.84C77.18 28.7267 76.8567 28.6367 76.49 28.57C76.1233 28.4967 75.69 28.46 75.19 28.46C74.43 28.46 73.7433 28.5867 73.13 28.84C72.5233 29.0867 72.0033 29.4433 71.57 29.91C71.1367 30.37 70.8033 30.93 70.57 31.59C70.3367 32.25 70.22 32.9867 70.22 33.8C70.22 34.66 70.3433 35.43 70.59 36.11C70.8367 36.7833 71.1867 37.3567 71.64 37.83C72.0933 38.2967 72.64 38.6533 73.28 38.9C73.9267 39.1467 74.6467 39.27 75.44 39.27C76.0333 39.27 76.56 39.2067 77.02 39.08C77.4867 38.9533 77.9433 38.7767 78.39 38.55V35.69H76.38C76.2267 35.69 76.1067 35.65 76.02 35.57C75.9333 35.4833 75.89 35.3733 75.89 35.24V33.91H80.5ZM87.1536 30.64C87.9069 30.64 88.5869 30.7633 89.1936 31.01C89.8069 31.2567 90.3269 31.6067 90.7536 32.06C91.1869 32.5133 91.5203 33.0633 91.7536 33.71C91.9869 34.3567 92.1036 35.0833 92.1036 35.89C92.1036 36.6967 91.9869 37.4233 91.7536 38.07C91.5203 38.7167 91.1869 39.27 90.7536 39.73C90.3269 40.1833 89.8069 40.5333 89.1936 40.78C88.5869 41.0267 87.9069 41.15 87.1536 41.15C86.3936 41.15 85.7069 41.0267 85.0936 40.78C84.4869 40.5333 83.9669 40.1833 83.5336 39.73C83.1003 39.27 82.7669 38.7167 82.5336 38.07C82.3003 37.4233 82.1836 36.6967 82.1836 35.89C82.1836 35.0833 82.3003 34.3567 82.5336 33.71C82.7669 33.0633 83.1003 32.5133 83.5336 32.06C83.9669 31.6067 84.4869 31.2567 85.0936 31.01C85.7069 30.7633 86.3936 30.64 87.1536 30.64ZM87.1536 39.47C88.0736 39.47 88.7569 39.1633 89.2036 38.55C89.6569 37.93 89.8836 37.0467 89.8836 35.9C89.8836 34.7533 89.6569 33.87 89.2036 33.25C88.7569 32.6233 88.0736 32.31 87.1536 32.31C86.2203 32.31 85.5269 32.6233 85.0736 33.25C84.6203 33.87 84.3936 34.7533 84.3936 35.9C84.3936 37.0467 84.6203 37.93 85.0736 38.55C85.5269 39.1633 86.2203 39.47 87.1536 39.47ZM98.5794 30.64C99.3327 30.64 100.013 30.7633 100.619 31.01C101.233 31.2567 101.753 31.6067 102.179 32.06C102.613 32.5133 102.946 33.0633 103.179 33.71C103.413 34.3567 103.529 35.0833 103.529 35.89C103.529 36.6967 103.413 37.4233 103.179 38.07C102.946 38.7167 102.613 39.27 102.179 39.73C101.753 40.1833 101.233 40.5333 100.619 40.78C100.013 41.0267 99.3327 41.15 98.5794 41.15C97.8194 41.15 97.1327 41.0267 96.5194 40.78C95.9127 40.5333 95.3927 40.1833 94.9594 39.73C94.526 39.27 94.1927 38.7167 93.9594 38.07C93.726 37.4233 93.6094 36.6967 93.6094 35.89C93.6094 35.0833 93.726 34.3567 93.9594 33.71C94.1927 33.0633 94.526 32.5133 94.9594 32.06C95.3927 31.6067 95.9127 31.2567 96.5194 31.01C97.1327 30.7633 97.8194 30.64 98.5794 30.64ZM98.5794 39.47C99.4994 39.47 100.183 39.1633 100.629 38.55C101.083 37.93 101.309 37.0467 101.309 35.9C101.309 34.7533 101.083 33.87 100.629 33.25C100.183 32.6233 99.4994 32.31 98.5794 32.31C97.646 32.31 96.9527 32.6233 96.4994 33.25C96.046 33.87 95.8194 34.7533 95.8194 35.9C95.8194 37.0467 96.046 37.93 96.4994 38.55C96.9527 39.1633 97.646 39.47 98.5794 39.47ZM109.157 35.81C109.824 35.81 110.324 35.64 110.657 35.3C110.99 34.96 111.157 34.5167 111.157 33.97C111.157 33.41 110.99 32.9667 110.657 32.64C110.324 32.3133 109.824 32.15 109.157 32.15C108.497 32.15 107.997 32.3133 107.657 32.64C107.324 32.9667 107.157 33.41 107.157 33.97C107.157 34.2367 107.2 34.4833 107.287 34.71C107.374 34.9367 107.5 35.1333 107.667 35.3C107.834 35.46 108.04 35.5867 108.287 35.68C108.54 35.7667 108.83 35.81 109.157 35.81ZM112.147 41.5C112.147 41.2733 112.08 41.0933 111.947 40.96C111.82 40.82 111.647 40.7133 111.427 40.64C111.207 40.56 110.95 40.5033 110.657 40.47C110.364 40.43 110.05 40.4033 109.717 40.39C109.39 40.37 109.054 40.3533 108.707 40.34C108.367 40.32 108.037 40.2867 107.717 40.24C107.397 40.4067 107.134 40.6067 106.927 40.84C106.727 41.0733 106.627 41.3433 106.627 41.65C106.627 41.85 106.677 42.0367 106.777 42.21C106.884 42.3833 107.044 42.5333 107.257 42.66C107.477 42.7867 107.754 42.8867 108.087 42.96C108.427 43.0333 108.834 43.07 109.307 43.07C110.254 43.07 110.964 42.9233 111.437 42.63C111.91 42.3367 112.147 41.96 112.147 41.5ZM114.307 31.17V31.97C114.307 32.2367 114.147 32.4 113.827 32.46L112.807 32.63C112.98 33.0167 113.067 33.4467 113.067 33.92C113.067 34.42 112.967 34.8733 112.767 35.28C112.574 35.6867 112.304 36.0333 111.957 36.32C111.61 36.6067 111.197 36.8267 110.717 36.98C110.237 37.1333 109.717 37.21 109.157 37.21C108.944 37.21 108.734 37.2 108.527 37.18C108.327 37.1533 108.13 37.12 107.937 37.08C107.744 37.1933 107.6 37.3133 107.507 37.44C107.414 37.5667 107.367 37.6967 107.367 37.83C107.367 38.05 107.464 38.2133 107.657 38.32C107.85 38.4267 108.104 38.5033 108.417 38.55C108.737 38.5967 109.1 38.6267 109.507 38.64C109.914 38.6533 110.327 38.6767 110.747 38.71C111.167 38.7433 111.58 38.8 111.987 38.88C112.394 38.9533 112.754 39.08 113.067 39.26C113.387 39.4333 113.644 39.67 113.837 39.97C114.03 40.27 114.127 40.66 114.127 41.14C114.127 41.58 114.017 42.01 113.797 42.43C113.577 42.85 113.257 43.2233 112.837 43.55C112.424 43.8767 111.917 44.1367 111.317 44.33C110.717 44.53 110.034 44.63 109.267 44.63C108.507 44.63 107.844 44.5567 107.277 44.41C106.717 44.2633 106.247 44.0633 105.867 43.81C105.494 43.5633 105.214 43.2767 105.027 42.95C104.847 42.6233 104.757 42.2833 104.757 41.93C104.757 41.45 104.907 41.04 105.207 40.7C105.514 40.36 105.927 40.0933 106.447 39.9C106.167 39.7667 105.94 39.5833 105.767 39.35C105.6 39.1167 105.517 38.81 105.517 38.43C105.517 38.13 105.627 37.8167 105.847 37.49C106.067 37.1633 106.397 36.8867 106.837 36.66C106.33 36.38 105.93 36.01 105.637 35.55C105.344 35.0833 105.197 34.54 105.197 33.92C105.197 33.4133 105.294 32.9567 105.487 32.55C105.687 32.1433 105.964 31.7967 106.317 31.51C106.67 31.2233 107.087 31.0033 107.567 30.85C108.054 30.6967 108.584 30.62 109.157 30.62C110.037 30.62 110.804 30.8033 111.457 31.17H114.307ZM118.195 26.2V41H116.045V26.2H118.195ZM127.539 34.75C127.539 34.39 127.486 34.0567 127.379 33.75C127.279 33.4367 127.129 33.1667 126.929 32.94C126.729 32.7067 126.479 32.5267 126.179 32.4C125.886 32.2667 125.546 32.2 125.159 32.2C124.379 32.2 123.766 32.4233 123.319 32.87C122.872 33.3167 122.589 33.9433 122.469 34.75H127.539ZM122.409 36.07C122.436 36.65 122.526 37.1533 122.679 37.58C122.832 38 123.036 38.35 123.289 38.63C123.549 38.91 123.856 39.12 124.209 39.26C124.569 39.3933 124.969 39.46 125.409 39.46C125.829 39.46 126.192 39.4133 126.499 39.32C126.806 39.22 127.072 39.1133 127.299 39C127.526 38.88 127.719 38.7733 127.879 38.68C128.039 38.58 128.186 38.53 128.319 38.53C128.492 38.53 128.626 38.5967 128.719 38.73L129.329 39.52C129.076 39.82 128.789 40.0733 128.469 40.28C128.149 40.4867 127.809 40.6567 127.449 40.79C127.089 40.9167 126.719 41.0067 126.339 41.06C125.959 41.12 125.589 41.15 125.229 41.15C124.522 41.15 123.866 41.0333 123.259 40.8C122.659 40.56 122.136 40.21 121.689 39.75C121.249 39.29 120.902 38.72 120.649 38.04C120.402 37.36 120.279 36.5767 120.279 35.69C120.279 34.9833 120.389 34.3233 120.609 33.71C120.836 33.0967 121.156 32.5633 121.569 32.11C121.989 31.6567 122.496 31.3 123.089 31.04C123.689 30.7733 124.366 30.64 125.119 30.64C125.746 30.64 126.326 30.7433 126.859 30.95C127.392 31.15 127.852 31.4467 128.239 31.84C128.626 32.2333 128.926 32.7167 129.139 33.29C129.359 33.8567 129.469 34.5033 129.469 35.23C129.469 35.5633 129.432 35.7867 129.359 35.9C129.286 36.0133 129.152 36.07 128.959 36.07H122.409ZM141.335 33.94C141.855 33.94 142.311 33.8733 142.705 33.74C143.105 33.6067 143.435 33.42 143.695 33.18C143.961 32.9333 144.161 32.6367 144.295 32.29C144.428 31.9433 144.495 31.5567 144.495 31.13C144.495 30.71 144.428 30.3333 144.295 30C144.168 29.6667 143.975 29.3833 143.715 29.15C143.455 28.9167 143.125 28.74 142.725 28.62C142.331 28.4933 141.868 28.43 141.335 28.43H139.195V33.94H141.335ZM141.335 26.6C142.275 26.6 143.088 26.71 143.775 26.93C144.468 27.15 145.038 27.46 145.485 27.86C145.938 28.2533 146.275 28.73 146.495 29.29C146.715 29.8433 146.825 30.4567 146.825 31.13C146.825 31.8167 146.708 32.4467 146.475 33.02C146.241 33.5867 145.895 34.0767 145.435 34.49C144.975 34.8967 144.401 35.2167 143.715 35.45C143.035 35.6767 142.241 35.79 141.335 35.79H139.195V41H136.855V26.6H141.335ZM150.793 26.2V41H148.643V26.2H150.793ZM158.897 36.54C158.13 36.5667 157.483 36.63 156.957 36.73C156.43 36.8233 156.003 36.9467 155.677 37.1C155.35 37.2467 155.113 37.4233 154.967 37.63C154.827 37.8367 154.757 38.0633 154.757 38.31C154.757 38.55 154.793 38.7567 154.867 38.93C154.947 39.0967 155.053 39.2367 155.187 39.35C155.327 39.4567 155.487 39.5367 155.667 39.59C155.853 39.6367 156.057 39.66 156.277 39.66C156.837 39.66 157.317 39.5567 157.717 39.35C158.123 39.1367 158.517 38.83 158.897 38.43V36.54ZM153.197 32.22C154.35 31.1467 155.723 30.61 157.317 30.61C157.903 30.61 158.423 30.7067 158.877 30.9C159.337 31.0867 159.72 31.3533 160.027 31.7C160.34 32.0467 160.577 32.46 160.737 32.94C160.903 33.4133 160.987 33.94 160.987 34.52V41H160.027C159.82 41 159.663 40.97 159.557 40.91C159.45 40.8433 159.36 40.7133 159.287 40.52L159.077 39.69C158.817 39.9233 158.56 40.1333 158.307 40.32C158.053 40.5 157.79 40.6533 157.517 40.78C157.25 40.9067 156.96 41 156.647 41.06C156.34 41.1267 156 41.16 155.627 41.16C155.213 41.16 154.827 41.1033 154.467 40.99C154.113 40.8767 153.807 40.7067 153.547 40.48C153.287 40.2467 153.08 39.96 152.927 39.62C152.78 39.28 152.707 38.88 152.707 38.42C152.707 38.0267 152.81 37.6433 153.017 37.27C153.23 36.8967 153.577 36.5633 154.057 36.27C154.543 35.97 155.18 35.7233 155.967 35.53C156.76 35.3367 157.737 35.2267 158.897 35.2V34.52C158.897 33.7867 158.74 33.24 158.427 32.88C158.113 32.52 157.653 32.34 157.047 32.34C156.633 32.34 156.287 32.3933 156.007 32.5C155.727 32.6 155.483 32.71 155.277 32.83C155.07 32.95 154.887 33.0633 154.727 33.17C154.567 33.27 154.397 33.32 154.217 33.32C154.07 33.32 153.943 33.2833 153.837 33.21C153.737 33.13 153.653 33.0333 153.587 32.92L153.197 32.22ZM172.282 30.8L166.662 43.9C166.589 44.0533 166.499 44.1733 166.392 44.26C166.292 44.3467 166.135 44.39 165.922 44.39H164.332L166.212 40.31L162.052 30.8H163.922C164.102 30.8 164.239 30.8433 164.332 30.93C164.432 31.01 164.505 31.1067 164.552 31.22L166.982 37.01C167.042 37.1767 167.095 37.3433 167.142 37.51C167.195 37.67 167.245 37.8367 167.292 38.01C167.345 37.8367 167.399 37.6667 167.452 37.5C167.505 37.3333 167.565 37.1667 167.632 37L169.962 31.22C170.009 31.1 170.085 31 170.192 30.92C170.305 30.84 170.429 30.8 170.562 30.8H172.282Z" fill="white"/>
<defs>
<clipPath id="clip0_2_1032">
<rect width="32" height="34.25" fill="white" transform="translate(27 8)"/>
</clipPath>
</defs>
</svg>
