<svg width="200" height="50" viewBox="0 0 200 50" fill="none" xmlns="http://www.w3.org/2000/svg">
<rect width="200" height="50" rx="10" fill="#1A1C1A"/>
<path d="M47.9695 26.0346C47.9531 23.2373 49.2205 21.1291 51.7799 19.5746C50.3484 17.5238 48.1828 16.3959 45.3281 16.1785C42.6252 15.9652 39.668 17.7535 38.5852 17.7535C37.4408 17.7535 34.824 16.2523 32.765 16.2523C28.5158 16.318 24 19.6402 24 26.3996C24 28.3971 24.365 30.4602 25.0951 32.5848C26.0713 35.382 29.5904 42.2357 33.2613 42.125C35.1809 42.0799 36.5385 40.7633 39.0363 40.7633C41.4604 40.7633 42.7154 42.125 44.8564 42.125C48.5602 42.0717 51.743 35.8414 52.6699 33.0359C47.7029 30.6939 47.9695 26.1781 47.9695 26.0346ZM47.5348 36.9857C46.9482 37.802 46.3576 38.4459 45.8162 38.8602C45.3855 39.1883 45.0533 39.3277 44.8318 39.3359C44.4627 39.3318 44.1059 39.2416 43.4086 38.975C43.3594 38.9545 43.3061 38.934 43.2363 38.9094L43.0559 38.8396C42.3422 38.5648 41.9156 38.4172 41.3701 38.2736C40.6072 38.0768 39.8484 37.9701 39.0363 37.9701C38.2078 37.9701 37.4285 38.0727 36.6533 38.2654C36.0832 38.409 35.6033 38.5689 34.902 38.8314C34.8732 38.8438 34.5697 38.9586 34.4836 38.9914C34.34 39.0447 34.2293 39.0857 34.1268 39.1227C33.7002 39.2703 33.4295 39.3318 33.1875 39.3359C33.1588 39.3359 33.1342 39.3318 33.1137 39.3277C33.0686 39.3195 33.0111 39.3031 32.9455 39.2744C32.7609 39.2006 32.5395 39.0652 32.2893 38.8725C31.715 38.4254 31.0834 37.724 30.4395 36.8258C29.3115 35.2426 28.2451 33.1426 27.7324 31.6701C27.1008 29.8326 26.7891 28.073 26.7891 26.3955C26.7891 23.9264 27.5191 22.0479 28.7742 20.7723C29.8529 19.6812 31.3049 19.0701 32.7855 19.0373C33.0275 19.0414 33.3803 19.0988 33.8273 19.2219C34.1801 19.3162 34.5656 19.4434 35.0865 19.6279C35.2424 19.6854 35.7797 19.8781 35.8453 19.9027C36.1611 20.0176 36.399 20.0996 36.6328 20.1734C37.3793 20.4113 37.9576 20.5426 38.5852 20.5426C39.2209 20.5426 39.7664 20.4072 40.5416 20.1406C40.8328 20.0422 41.891 19.6484 42.0797 19.5828C43.1297 19.2096 43.9049 19.0086 44.5734 18.9594C44.7703 18.943 44.9467 18.943 45.1148 18.9553C46.0459 19.0291 46.8416 19.2137 47.5184 19.5213C45.9762 21.3014 45.1805 23.4793 45.1846 26.0182C45.1723 26.6211 45.2215 27.3184 45.3937 28.1428C45.6562 29.3937 46.1566 30.6324 46.9482 31.7932C47.5512 32.675 48.2977 33.4707 49.1918 34.1639C48.7201 35.1359 48.1418 36.1408 47.5348 36.9857ZM43.6588 13.5248C45.7383 11.0557 45.5496 8.80801 45.4881 8C43.6506 8.10664 41.526 9.25098 40.316 10.6578C38.983 12.1672 38.1996 14.0334 38.3678 16.1375C40.3529 16.2893 42.1658 15.268 43.6588 13.5248Z" fill="white"/>
<path d="M71.6875 13.63C71.6875 14.435 71.56 15.1675 71.305 15.8275C71.05 16.4875 70.69 17.0525 70.225 17.5225C69.76 17.9925 69.2 18.3575 68.545 18.6175C67.895 18.8725 67.175 19 66.385 19H62.3725V8.2525H66.385C67.175 8.2525 67.895 8.3825 68.545 8.6425C69.2 8.8975 69.76 9.2625 70.225 9.7375C70.69 10.2075 71.05 10.7725 71.305 11.4325C71.56 12.0925 71.6875 12.825 71.6875 13.63ZM70.195 13.63C70.195 12.97 70.105 12.38 69.925 11.86C69.745 11.34 69.49 10.9 69.16 10.54C68.83 10.18 68.43 9.905 67.96 9.715C67.49 9.525 66.965 9.43 66.385 9.43H63.8275V17.8225H66.385C66.965 17.8225 67.49 17.7275 67.96 17.5375C68.43 17.3475 68.83 17.075 69.16 16.72C69.49 16.36 69.745 15.92 69.925 15.4C70.105 14.88 70.195 14.29 70.195 13.63ZM76.5686 11.2825C77.1236 11.2825 77.6236 11.375 78.0686 11.56C78.5136 11.745 78.8936 12.0075 79.2086 12.3475C79.5236 12.6875 79.7636 13.1 79.9286 13.585C80.0986 14.065 80.1836 14.6025 80.1836 15.1975C80.1836 15.7975 80.0986 16.3375 79.9286 16.8175C79.7636 17.2975 79.5236 17.7075 79.2086 18.0475C78.8936 18.3875 78.5136 18.65 78.0686 18.835C77.6236 19.015 77.1236 19.105 76.5686 19.105C76.0086 19.105 75.5036 19.015 75.0536 18.835C74.6086 18.65 74.2286 18.3875 73.9136 18.0475C73.5986 17.7075 73.3561 17.2975 73.1861 16.8175C73.0211 16.3375 72.9386 15.7975 72.9386 15.1975C72.9386 14.6025 73.0211 14.065 73.1861 13.585C73.3561 13.1 73.5986 12.6875 73.9136 12.3475C74.2286 12.0075 74.6086 11.745 75.0536 11.56C75.5036 11.375 76.0086 11.2825 76.5686 11.2825ZM76.5686 18.0625C77.3186 18.0625 77.8786 17.8125 78.2486 17.3125C78.6186 16.8075 78.8036 16.105 78.8036 15.205C78.8036 14.3 78.6186 13.595 78.2486 13.09C77.8786 12.585 77.3186 12.3325 76.5686 12.3325C76.1886 12.3325 75.8561 12.3975 75.5711 12.5275C75.2911 12.6575 75.0561 12.845 74.8661 13.09C74.6811 13.335 74.5411 13.6375 74.4461 13.9975C74.3561 14.3525 74.3111 14.755 74.3111 15.205C74.3111 16.105 74.4961 16.8075 74.8661 17.3125C75.2411 17.8125 75.8086 18.0625 76.5686 18.0625ZM92.2371 11.4025L89.7771 19H88.7196C88.5896 19 88.4996 18.915 88.4496 18.745L86.7696 13.5925C86.7296 13.4775 86.6971 13.3625 86.6721 13.2475C86.6471 13.1275 86.6221 13.01 86.5971 12.895C86.5721 13.01 86.5471 13.1275 86.5221 13.2475C86.4971 13.3625 86.4646 13.48 86.4246 13.6L84.7146 18.745C84.6696 18.915 84.5696 19 84.4146 19H83.4096L80.9496 11.4025H81.9996C82.1046 11.4025 82.1921 11.43 82.2621 11.485C82.3371 11.54 82.3871 11.605 82.4121 11.68L83.8671 16.57C83.9521 16.93 84.0196 17.27 84.0696 17.59C84.1146 17.425 84.1596 17.2575 84.2046 17.0875C84.2546 16.9175 84.3071 16.745 84.3621 16.57L85.9671 11.65C85.9921 11.575 86.0346 11.5125 86.0946 11.4625C86.1596 11.4125 86.2371 11.3875 86.3271 11.3875H86.9121C87.0121 11.3875 87.0946 11.4125 87.1596 11.4625C87.2246 11.5125 87.2696 11.575 87.2946 11.65L88.8621 16.57C88.9171 16.745 88.9671 16.9175 89.0121 17.0875C89.0571 17.2575 89.0996 17.425 89.1396 17.59C89.1646 17.425 89.1946 17.26 89.2296 17.095C89.2696 16.925 89.3121 16.75 89.3571 16.57L90.8421 11.68C90.8671 11.6 90.9146 11.535 90.9846 11.485C91.0546 11.43 91.1371 11.4025 91.2321 11.4025H92.2371ZM94.797 12.505C94.962 12.32 95.137 12.1525 95.322 12.0025C95.507 11.8525 95.702 11.725 95.907 11.62C96.117 11.51 96.337 11.4275 96.567 11.3725C96.802 11.3125 97.0545 11.2825 97.3245 11.2825C97.7395 11.2825 98.1045 11.3525 98.4195 11.4925C98.7395 11.6275 99.0045 11.8225 99.2145 12.0775C99.4295 12.3275 99.592 12.63 99.702 12.985C99.812 13.34 99.867 13.7325 99.867 14.1625V19H98.5245V14.1625C98.5245 13.5875 98.392 13.1425 98.127 12.8275C97.867 12.5075 97.4695 12.3475 96.9345 12.3475C96.5395 12.3475 96.1695 12.4425 95.8245 12.6325C95.4845 12.8225 95.1695 13.08 94.8795 13.405V19H93.537V11.4025H94.3395C94.5295 11.4025 94.647 11.495 94.692 11.68L94.797 12.505ZM103.281 7.9525V19H101.946V7.9525H103.281ZM108.649 11.2825C109.204 11.2825 109.704 11.375 110.149 11.56C110.594 11.745 110.974 12.0075 111.289 12.3475C111.604 12.6875 111.844 13.1 112.009 13.585C112.179 14.065 112.264 14.6025 112.264 15.1975C112.264 15.7975 112.179 16.3375 112.009 16.8175C111.844 17.2975 111.604 17.7075 111.289 18.0475C110.974 18.3875 110.594 18.65 110.149 18.835C109.704 19.015 109.204 19.105 108.649 19.105C108.089 19.105 107.584 19.015 107.134 18.835C106.689 18.65 106.309 18.3875 105.994 18.0475C105.679 17.7075 105.436 17.2975 105.266 16.8175C105.101 16.3375 105.019 15.7975 105.019 15.1975C105.019 14.6025 105.101 14.065 105.266 13.585C105.436 13.1 105.679 12.6875 105.994 12.3475C106.309 12.0075 106.689 11.745 107.134 11.56C107.584 11.375 108.089 11.2825 108.649 11.2825ZM108.649 18.0625C109.399 18.0625 109.959 17.8125 110.329 17.3125C110.699 16.8075 110.884 16.105 110.884 15.205C110.884 14.3 110.699 13.595 110.329 13.09C109.959 12.585 109.399 12.3325 108.649 12.3325C108.269 12.3325 107.936 12.3975 107.651 12.5275C107.371 12.6575 107.136 12.845 106.946 13.09C106.761 13.335 106.621 13.6375 106.526 13.9975C106.436 14.3525 106.391 14.755 106.391 15.205C106.391 16.105 106.576 16.8075 106.946 17.3125C107.321 17.8125 107.889 18.0625 108.649 18.0625ZM118.074 15.58C117.459 15.6 116.934 15.65 116.499 15.73C116.069 15.805 115.717 15.905 115.442 16.03C115.172 16.155 114.974 16.3025 114.849 16.4725C114.729 16.6425 114.669 16.8325 114.669 17.0425C114.669 17.2425 114.702 17.415 114.767 17.56C114.832 17.705 114.919 17.825 115.029 17.92C115.144 18.01 115.277 18.0775 115.427 18.1225C115.582 18.1625 115.747 18.1825 115.922 18.1825C116.157 18.1825 116.372 18.16 116.567 18.115C116.762 18.065 116.944 17.995 117.114 17.905C117.289 17.815 117.454 17.7075 117.609 17.5825C117.769 17.4575 117.924 17.315 118.074 17.155V15.58ZM113.762 12.475C114.182 12.07 114.634 11.7675 115.119 11.5675C115.604 11.3675 116.142 11.2675 116.732 11.2675C117.157 11.2675 117.534 11.3375 117.864 11.4775C118.194 11.6175 118.472 11.8125 118.697 12.0625C118.922 12.3125 119.092 12.615 119.207 12.97C119.322 13.325 119.379 13.715 119.379 14.14V19H118.787C118.657 19 118.557 18.98 118.487 18.94C118.417 18.895 118.362 18.81 118.322 18.685L118.172 17.965C117.972 18.15 117.777 18.315 117.587 18.46C117.397 18.6 117.197 18.72 116.987 18.82C116.777 18.915 116.552 18.9875 116.312 19.0375C116.077 19.0925 115.814 19.12 115.524 19.12C115.229 19.12 114.952 19.08 114.692 19C114.432 18.915 114.204 18.79 114.009 18.625C113.819 18.46 113.667 18.2525 113.552 18.0025C113.442 17.7475 113.387 17.4475 113.387 17.1025C113.387 16.8025 113.469 16.515 113.634 16.24C113.799 15.96 114.067 15.7125 114.437 15.4975C114.807 15.2825 115.289 15.1075 115.884 14.9725C116.479 14.8325 117.209 14.7525 118.074 14.7325V14.14C118.074 13.55 117.947 13.105 117.692 12.805C117.437 12.5 117.064 12.3475 116.574 12.3475C116.244 12.3475 115.967 12.39 115.742 12.475C115.522 12.555 115.329 12.6475 115.164 12.7525C115.004 12.8525 114.864 12.945 114.744 13.03C114.629 13.11 114.514 13.15 114.399 13.15C114.309 13.15 114.232 13.1275 114.167 13.0825C114.102 13.0325 114.047 12.9725 114.002 12.9025L113.762 12.475ZM126.363 13.21C126.113 12.875 125.843 12.6425 125.553 12.5125C125.263 12.3775 124.938 12.31 124.578 12.31C123.873 12.31 123.33 12.5625 122.95 13.0675C122.57 13.5725 122.38 14.2925 122.38 15.2275C122.38 15.7225 122.423 16.1475 122.508 16.5025C122.593 16.8525 122.718 17.1425 122.883 17.3725C123.048 17.5975 123.25 17.7625 123.49 17.8675C123.73 17.9725 124.003 18.025 124.308 18.025C124.748 18.025 125.13 17.925 125.455 17.725C125.785 17.525 126.088 17.2425 126.363 16.8775V13.21ZM127.698 7.9525V19H126.903C126.713 19 126.593 18.9075 126.543 18.7225L126.423 17.8C126.098 18.19 125.728 18.505 125.313 18.745C124.898 18.985 124.418 19.105 123.873 19.105C123.438 19.105 123.043 19.0225 122.688 18.8575C122.333 18.6875 122.03 18.44 121.78 18.115C121.53 17.79 121.338 17.385 121.203 16.9C121.068 16.415 121 15.8575 121 15.2275C121 14.6675 121.075 14.1475 121.225 13.6675C121.375 13.1825 121.59 12.7625 121.87 12.4075C122.15 12.0525 122.493 11.775 122.898 11.575C123.308 11.37 123.768 11.2675 124.278 11.2675C124.743 11.2675 125.14 11.3475 125.47 11.5075C125.805 11.6625 126.103 11.88 126.363 12.16V7.9525H127.698ZM136.847 11.2825C137.402 11.2825 137.902 11.375 138.347 11.56C138.792 11.745 139.172 12.0075 139.487 12.3475C139.802 12.6875 140.042 13.1 140.207 13.585C140.377 14.065 140.462 14.6025 140.462 15.1975C140.462 15.7975 140.377 16.3375 140.207 16.8175C140.042 17.2975 139.802 17.7075 139.487 18.0475C139.172 18.3875 138.792 18.65 138.347 18.835C137.902 19.015 137.402 19.105 136.847 19.105C136.287 19.105 135.782 19.015 135.332 18.835C134.887 18.65 134.507 18.3875 134.192 18.0475C133.877 17.7075 133.634 17.2975 133.464 16.8175C133.299 16.3375 133.217 15.7975 133.217 15.1975C133.217 14.6025 133.299 14.065 133.464 13.585C133.634 13.1 133.877 12.6875 134.192 12.3475C134.507 12.0075 134.887 11.745 135.332 11.56C135.782 11.375 136.287 11.2825 136.847 11.2825ZM136.847 18.0625C137.597 18.0625 138.157 17.8125 138.527 17.3125C138.897 16.8075 139.082 16.105 139.082 15.205C139.082 14.3 138.897 13.595 138.527 13.09C138.157 12.585 137.597 12.3325 136.847 12.3325C136.467 12.3325 136.134 12.3975 135.849 12.5275C135.569 12.6575 135.334 12.845 135.144 13.09C134.959 13.335 134.819 13.6375 134.724 13.9975C134.634 14.3525 134.589 14.755 134.589 15.205C134.589 16.105 134.774 16.8075 135.144 17.3125C135.519 17.8125 136.087 18.0625 136.847 18.0625ZM143.415 12.505C143.58 12.32 143.755 12.1525 143.94 12.0025C144.125 11.8525 144.32 11.725 144.525 11.62C144.735 11.51 144.955 11.4275 145.185 11.3725C145.42 11.3125 145.673 11.2825 145.943 11.2825C146.358 11.2825 146.723 11.3525 147.038 11.4925C147.358 11.6275 147.623 11.8225 147.833 12.0775C148.048 12.3275 148.21 12.63 148.32 12.985C148.43 13.34 148.485 13.7325 148.485 14.1625V19H147.143V14.1625C147.143 13.5875 147.01 13.1425 146.745 12.8275C146.485 12.5075 146.088 12.3475 145.553 12.3475C145.158 12.3475 144.788 12.4425 144.443 12.6325C144.103 12.8225 143.788 13.08 143.498 13.405V19H142.155V11.4025H142.958C143.148 11.4025 143.265 11.495 143.31 11.68L143.415 12.505ZM156.69 19.12C156.09 19.12 155.627 18.9525 155.302 18.6175C154.982 18.2825 154.822 17.8 154.822 17.17V12.52H153.907C153.827 12.52 153.76 12.4975 153.705 12.4525C153.65 12.4025 153.622 12.3275 153.622 12.2275V11.695L154.867 11.5375L155.175 9.19C155.19 9.115 155.222 9.055 155.272 9.01C155.327 8.96 155.397 8.935 155.482 8.935H156.157V11.5525H158.355V12.52H156.157V17.08C156.157 17.4 156.235 17.6375 156.39 17.7925C156.545 17.9475 156.745 18.025 156.99 18.025C157.13 18.025 157.25 18.0075 157.35 17.9725C157.455 17.9325 157.545 17.89 157.62 17.845C157.695 17.8 157.757 17.76 157.807 17.725C157.862 17.685 157.91 17.665 157.95 17.665C158.02 17.665 158.082 17.7075 158.137 17.7925L158.527 18.43C158.297 18.645 158.02 18.815 157.695 18.94C157.37 19.06 157.035 19.12 156.69 19.12ZM161.076 12.415C161.401 12.07 161.761 11.795 162.156 11.59C162.551 11.385 163.006 11.2825 163.521 11.2825C163.936 11.2825 164.301 11.3525 164.616 11.4925C164.936 11.6275 165.201 11.8225 165.411 12.0775C165.626 12.3275 165.788 12.63 165.898 12.985C166.008 13.34 166.063 13.7325 166.063 14.1625V19H164.721V14.1625C164.721 13.5875 164.588 13.1425 164.323 12.8275C164.063 12.5075 163.666 12.3475 163.131 12.3475C162.736 12.3475 162.366 12.4425 162.021 12.6325C161.681 12.8225 161.366 13.08 161.076 13.405V19H159.733V7.9525H161.076V12.415ZM173.183 14.3725C173.183 14.0625 173.138 13.78 173.048 13.525C172.963 13.265 172.835 13.0425 172.665 12.8575C172.5 12.6675 172.298 12.5225 172.058 12.4225C171.818 12.3175 171.545 12.265 171.24 12.265C170.6 12.265 170.093 12.4525 169.718 12.8275C169.348 13.1975 169.118 13.7125 169.028 14.3725H173.183ZM174.263 17.935C174.098 18.135 173.9 18.31 173.67 18.46C173.44 18.605 173.193 18.725 172.928 18.82C172.668 18.915 172.398 18.985 172.118 19.03C171.838 19.08 171.56 19.105 171.285 19.105C170.76 19.105 170.275 19.0175 169.83 18.8425C169.39 18.6625 169.008 18.4025 168.683 18.0625C168.363 17.7175 168.113 17.2925 167.933 16.7875C167.753 16.2825 167.663 15.7025 167.663 15.0475C167.663 14.5175 167.743 14.0225 167.903 13.5625C168.068 13.1025 168.303 12.705 168.608 12.37C168.913 12.03 169.285 11.765 169.725 11.575C170.165 11.38 170.66 11.2825 171.21 11.2825C171.665 11.2825 172.085 11.36 172.47 11.515C172.86 11.665 173.195 11.885 173.475 12.175C173.76 12.46 173.983 12.815 174.143 13.24C174.303 13.66 174.383 14.14 174.383 14.68C174.383 14.89 174.36 15.03 174.315 15.1C174.27 15.17 174.185 15.205 174.06 15.205H168.983C168.998 15.685 169.063 16.1025 169.178 16.4575C169.298 16.8125 169.463 17.11 169.673 17.35C169.883 17.585 170.133 17.7625 170.423 17.8825C170.713 17.9975 171.038 18.055 171.398 18.055C171.733 18.055 172.02 18.0175 172.26 17.9425C172.505 17.8625 172.715 17.7775 172.89 17.6875C173.065 17.5975 173.21 17.515 173.325 17.44C173.445 17.36 173.548 17.32 173.633 17.32C173.743 17.32 173.828 17.3625 173.888 17.4475L174.263 17.935Z" fill="white"/>
<path d="M70.33 36.6L68.35 31.34C68.19 30.9333 68.0267 30.4167 67.86 29.79C67.7867 30.1033 67.7067 30.3933 67.62 30.66C67.5333 30.92 67.4533 31.15 67.38 31.35L65.4 36.6H70.33ZM74.76 42H72.95C72.7433 42 72.5767 41.95 72.45 41.85C72.3233 41.7433 72.2267 41.6133 72.16 41.46L70.96 38.28H64.76L63.56 41.46C63.5067 41.5933 63.4133 41.7167 63.28 41.83C63.1467 41.9433 62.98 42 62.78 42H60.97L66.68 27.6H69.05L74.76 42ZM80.9205 34.94C81.4405 34.94 81.8971 34.8733 82.2905 34.74C82.6905 34.6067 83.0205 34.42 83.2805 34.18C83.5471 33.9333 83.7471 33.6367 83.8805 33.29C84.0138 32.9433 84.0805 32.5567 84.0805 32.13C84.0805 31.71 84.0138 31.3333 83.8805 31C83.7538 30.6667 83.5605 30.3833 83.3005 30.15C83.0405 29.9167 82.7105 29.74 82.3105 29.62C81.9171 29.4933 81.4538 29.43 80.9205 29.43H78.7805V34.94H80.9205ZM80.9205 27.6C81.8605 27.6 82.6738 27.71 83.3605 27.93C84.0538 28.15 84.6238 28.46 85.0705 28.86C85.5238 29.2533 85.8605 29.73 86.0805 30.29C86.3005 30.8433 86.4105 31.4567 86.4105 32.13C86.4105 32.8167 86.2938 33.4467 86.0605 34.02C85.8271 34.5867 85.4805 35.0767 85.0205 35.49C84.5605 35.8967 83.9871 36.2167 83.3005 36.45C82.6205 36.6767 81.8271 36.79 80.9205 36.79H78.7805V42H76.4405V27.6H80.9205ZM93.1275 34.94C93.6475 34.94 94.1042 34.8733 94.4975 34.74C94.8975 34.6067 95.2275 34.42 95.4875 34.18C95.7542 33.9333 95.9542 33.6367 96.0875 33.29C96.2208 32.9433 96.2875 32.5567 96.2875 32.13C96.2875 31.71 96.2208 31.3333 96.0875 31C95.9608 30.6667 95.7675 30.3833 95.5075 30.15C95.2475 29.9167 94.9175 29.74 94.5175 29.62C94.1242 29.4933 93.6608 29.43 93.1275 29.43H90.9875V34.94H93.1275ZM93.1275 27.6C94.0675 27.6 94.8808 27.71 95.5675 27.93C96.2608 28.15 96.8308 28.46 97.2775 28.86C97.7308 29.2533 98.0675 29.73 98.2875 30.29C98.5075 30.8433 98.6175 31.4567 98.6175 32.13C98.6175 32.8167 98.5008 33.4467 98.2675 34.02C98.0342 34.5867 97.6875 35.0767 97.2275 35.49C96.7675 35.8967 96.1942 36.2167 95.5075 36.45C94.8275 36.6767 94.0342 36.79 93.1275 36.79H90.9875V42H88.6475V27.6H93.1275ZM112.818 30.06C112.745 30.18 112.668 30.27 112.588 30.33C112.508 30.3833 112.408 30.41 112.288 30.41C112.161 30.41 112.018 30.3567 111.858 30.25C111.705 30.1433 111.511 30.0267 111.278 29.9C111.051 29.7667 110.781 29.6467 110.468 29.54C110.155 29.4267 109.781 29.37 109.348 29.37C108.948 29.37 108.595 29.42 108.288 29.52C107.988 29.62 107.735 29.76 107.528 29.94C107.321 30.12 107.165 30.3333 107.058 30.58C106.958 30.82 106.908 31.0833 106.908 31.37C106.908 31.7367 107.005 32.0433 107.198 32.29C107.391 32.53 107.645 32.7367 107.958 32.91C108.278 33.0833 108.641 33.2367 109.048 33.37C109.455 33.4967 109.868 33.6333 110.288 33.78C110.715 33.9267 111.131 34.0933 111.538 34.28C111.945 34.4667 112.305 34.7033 112.618 34.99C112.938 35.2767 113.195 35.6267 113.388 36.04C113.581 36.4533 113.678 36.9567 113.678 37.55C113.678 38.19 113.568 38.79 113.348 39.35C113.128 39.91 112.808 40.4 112.388 40.82C111.975 41.2333 111.461 41.56 110.848 41.8C110.241 42.04 109.548 42.16 108.768 42.16C108.308 42.16 107.858 42.1133 107.418 42.02C106.985 41.9333 106.568 41.81 106.168 41.65C105.775 41.4833 105.405 41.2833 105.058 41.05C104.711 40.8167 104.401 40.5567 104.128 40.27L104.808 39.15C104.868 39.0567 104.945 38.9833 105.038 38.93C105.131 38.8767 105.235 38.85 105.348 38.85C105.501 38.85 105.671 38.9233 105.858 39.07C106.045 39.21 106.268 39.3667 106.528 39.54C106.795 39.7067 107.115 39.8633 107.488 40.01C107.861 40.15 108.308 40.22 108.828 40.22C109.675 40.22 110.328 40.0133 110.788 39.6C111.255 39.1867 111.488 38.6167 111.488 37.89C111.488 37.4833 111.391 37.1533 111.198 36.9C111.005 36.64 110.748 36.4233 110.428 36.25C110.115 36.0767 109.755 35.93 109.348 35.81C108.941 35.69 108.528 35.5633 108.108 35.43C107.688 35.29 107.275 35.13 106.868 34.95C106.461 34.7633 106.098 34.5233 105.778 34.23C105.465 33.93 105.211 33.5633 105.018 33.13C104.825 32.69 104.728 32.1433 104.728 31.49C104.728 30.97 104.828 30.4667 105.028 29.98C105.235 29.4933 105.531 29.0633 105.918 28.69C106.311 28.31 106.795 28.0067 107.368 27.78C107.941 27.5533 108.595 27.44 109.328 27.44C110.155 27.44 110.911 27.57 111.598 27.83C112.291 28.09 112.888 28.46 113.388 28.94L112.818 30.06ZM126.116 29.55H121.626V42H119.296V29.55H114.796V27.6H126.116V29.55ZM141.084 34.8C141.084 35.8667 140.91 36.85 140.564 37.75C140.217 38.65 139.727 39.4267 139.094 40.08C138.467 40.7267 137.71 41.2333 136.824 41.6C135.944 41.9667 134.964 42.15 133.884 42.15C132.81 42.15 131.83 41.9667 130.944 41.6C130.064 41.2333 129.307 40.7267 128.674 40.08C128.04 39.4267 127.55 38.65 127.204 37.75C126.857 36.85 126.684 35.8667 126.684 34.8C126.684 33.7333 126.857 32.75 127.204 31.85C127.55 30.95 128.04 30.1733 128.674 29.52C129.307 28.8667 130.064 28.3567 130.944 27.99C131.83 27.6233 132.81 27.44 133.884 27.44C134.964 27.44 135.944 27.6233 136.824 27.99C137.71 28.3567 138.467 28.8667 139.094 29.52C139.727 30.1733 140.217 30.95 140.564 31.85C140.91 32.75 141.084 33.7333 141.084 34.8ZM138.694 34.8C138.694 33.9733 138.58 33.23 138.354 32.57C138.134 31.91 137.814 31.35 137.394 30.89C136.98 30.43 136.477 30.0767 135.884 29.83C135.29 29.5833 134.624 29.46 133.884 29.46C133.15 29.46 132.487 29.5833 131.894 29.83C131.3 30.0767 130.794 30.43 130.374 30.89C129.954 31.35 129.63 31.91 129.404 32.57C129.177 33.23 129.064 33.9733 129.064 34.8C129.064 35.6333 129.177 36.38 129.404 37.04C129.63 37.7 129.954 38.26 130.374 38.72C130.794 39.1733 131.3 39.5233 131.894 39.77C132.487 40.01 133.15 40.13 133.884 40.13C134.624 40.13 135.29 40.01 135.884 39.77C136.477 39.5233 136.98 39.1733 137.394 38.72C137.814 38.26 138.134 37.7 138.354 37.04C138.58 36.38 138.694 35.6333 138.694 34.8ZM147.828 34.5C148.361 34.5 148.828 34.4367 149.228 34.31C149.628 34.1767 149.961 33.9933 150.228 33.76C150.494 33.5267 150.694 33.25 150.828 32.93C150.961 32.6033 151.028 32.2433 151.028 31.85C151.028 31.0633 150.768 30.4633 150.248 30.05C149.728 29.6367 148.941 29.43 147.888 29.43H145.988V34.5H147.828ZM154.608 42H152.518C152.104 42 151.804 41.84 151.618 41.52L148.258 36.67C148.144 36.5033 148.021 36.3833 147.888 36.31C147.754 36.2367 147.554 36.2 147.288 36.2H145.988V42H143.648V27.6H147.888C148.834 27.6 149.648 27.6967 150.328 27.89C151.014 28.0833 151.578 28.36 152.018 28.72C152.458 29.0733 152.781 29.5 152.988 30C153.201 30.5 153.308 31.0567 153.308 31.67C153.308 32.17 153.231 32.6367 153.078 33.07C152.931 33.5033 152.714 33.8967 152.428 34.25C152.148 34.6033 151.801 34.91 151.388 35.17C150.974 35.43 150.504 35.6333 149.978 35.78C150.264 35.9533 150.511 36.1967 150.718 36.51L154.608 42ZM165.333 40.11L165.323 42H156.343V27.6H165.323V29.49H158.693V33.83H163.993V35.66H158.693V40.11H165.333Z" fill="white"/>
</svg>
