<svg width="27" height="28" viewBox="0 0 27 28" fill="none" xmlns="http://www.w3.org/2000/svg">
<rect x="0.515137" y="0.554199" width="26.4848" height="26.4848" rx="13.2424" fill="url(#paint0_linear_21_921)"/>
<path d="M11.4344 13.7966C11.4344 12.5136 12.4743 11.4732 13.7573 11.4732C15.0403 11.4732 16.0807 12.5136 16.0807 13.7966C16.0807 15.0796 15.0403 16.12 13.7573 16.12C12.4743 16.12 11.4344 15.0796 11.4344 13.7966ZM10.1784 13.7966C10.1784 15.7732 11.7807 17.3755 13.7573 17.3755C15.7339 17.3755 17.3361 15.7732 17.3361 13.7966C17.3361 11.82 15.7339 10.2177 13.7573 10.2177C11.7807 10.2177 10.1784 11.82 10.1784 13.7966ZM16.6415 10.0758C16.6414 10.2413 16.6904 10.403 16.7822 10.5406C16.8741 10.6781 17.0047 10.7854 17.1575 10.8487C17.3103 10.9121 17.4784 10.9287 17.6407 10.8965C17.8029 10.8643 17.952 10.7847 18.069 10.6678C18.186 10.5509 18.2657 10.4019 18.2981 10.2397C18.3304 10.0774 18.3139 9.90927 18.2507 9.75642C18.1874 9.60357 18.0803 9.47291 17.9428 9.38095C17.8053 9.289 17.6436 9.23988 17.4782 9.23981H17.4778C17.2561 9.23992 17.0435 9.32802 16.8867 9.48477C16.7298 9.64153 16.6417 9.85411 16.6415 10.0758V10.0758ZM10.9415 19.4698C10.262 19.4388 9.89268 19.3256 9.64724 19.23C9.32183 19.1033 9.08966 18.9524 8.84555 18.7087C8.60145 18.4649 8.45034 18.233 8.32422 17.9076C8.22854 17.6622 8.11535 17.2928 8.08446 16.6133C8.05067 15.8786 8.04393 15.6579 8.04393 13.7967C8.04393 11.9354 8.05123 11.7153 8.08446 10.9801C8.11541 10.3005 8.22943 9.93182 8.32422 9.68576C8.4509 9.36036 8.60178 9.12819 8.84555 8.88408C9.08933 8.63997 9.32128 8.48887 9.64724 8.36275C9.89257 8.26707 10.262 8.15388 10.9415 8.12299C11.6762 8.0892 11.8969 8.08245 13.7573 8.08245C15.6177 8.08245 15.8386 8.08976 16.5739 8.12299C17.2534 8.15393 17.6221 8.26796 17.8682 8.36275C18.1936 8.48887 18.4258 8.64031 18.6699 8.88408C18.914 9.12785 19.0645 9.36036 19.1912 9.68576C19.2869 9.9311 19.4001 10.3005 19.431 10.9801C19.4648 11.7153 19.4715 11.9354 19.4715 13.7967C19.4715 15.6579 19.4648 15.878 19.431 16.6133C19.4 17.2928 19.2863 17.6621 19.1912 17.9076C19.0645 18.233 18.9136 18.4651 18.6699 18.7087C18.4261 18.9522 18.1936 19.1033 17.8682 19.23C17.6229 19.3257 17.2534 19.4389 16.5739 19.4698C15.8392 19.5036 15.6185 19.5103 13.7573 19.5103C11.8961 19.5103 11.676 19.5036 10.9415 19.4698V19.4698ZM10.8838 6.86911C10.1419 6.9029 9.63486 7.02055 9.19209 7.19284C8.73354 7.37076 8.34535 7.60946 7.95745 7.99675C7.56954 8.38405 7.33146 8.77284 7.15353 9.23139C6.98124 9.67444 6.8636 10.1812 6.82981 10.9231C6.79546 11.6663 6.7876 11.9039 6.7876 13.7966C6.7876 15.6893 6.79546 15.9269 6.82981 16.6701C6.8636 17.4121 6.98124 17.9188 7.15353 18.3618C7.33146 18.8201 7.5696 19.2093 7.95745 19.5964C8.3453 19.9836 8.73354 20.2219 9.19209 20.4004C9.63569 20.5727 10.1419 20.6903 10.8838 20.7241C11.6274 20.7579 11.8645 20.7663 13.7573 20.7663C15.65 20.7663 15.8876 20.7584 16.6308 20.7241C17.3728 20.6903 17.8795 20.5727 18.3225 20.4004C18.7808 20.2219 19.1692 19.9837 19.5571 19.5964C19.945 19.2092 20.1826 18.8201 20.3611 18.3618C20.5333 17.9188 20.6515 17.412 20.6848 16.6701C20.7186 15.9264 20.7264 15.6893 20.7264 13.7966C20.7264 11.9039 20.7186 11.6663 20.6848 10.9231C20.651 10.1811 20.5333 9.67416 20.3611 9.23139C20.1826 8.77312 19.9444 8.38466 19.5571 7.99675C19.1698 7.60885 18.7808 7.37076 18.3231 7.19284C17.8795 7.02055 17.3727 6.90234 16.6313 6.86911C15.8882 6.83532 15.6506 6.8269 13.7579 6.8269C11.8651 6.8269 11.6274 6.83477 10.8838 6.86911Z" fill="white"/>
<defs>
<linearGradient id="paint0_linear_21_921" x1="-14.5229" y1="-43.549" x2="-103.913" y2="-11.8228" gradientUnits="userSpaceOnUse">
<stop stop-color="#353935"/>
<stop offset="1" stop-color="#2B3B30"/>
</linearGradient>
</defs>
</svg>
