<svg width="27" height="28" viewBox="0 0 27 28" fill="none" xmlns="http://www.w3.org/2000/svg">
<rect y="0.554199" width="26.4848" height="26.4848" rx="13.2424" fill="url(#paint0_linear_21_915)"/>
<path d="M19.3797 11.1783C19.3797 11.3119 19.3797 11.4454 19.3797 11.5599C19.3797 15.5094 16.3651 20.0694 10.8702 20.0694C9.17208 20.0694 7.60755 19.5734 6.27197 18.7339C6.50093 18.7529 6.74896 18.772 6.97792 18.772C8.37074 18.772 9.66816 18.295 10.6985 17.4937C9.38196 17.4746 8.27534 16.5969 7.91283 15.414C8.10362 15.4521 8.27534 15.4712 8.48522 15.4712C8.75233 15.4712 9.01945 15.4331 9.26748 15.3567C7.89375 15.0896 6.86344 13.8876 6.86344 12.4376C6.86344 12.4185 6.86344 12.4185 6.86344 12.3994C7.26412 12.6284 7.72203 12.7619 8.2181 12.781C7.41675 12.2468 6.88252 11.3309 6.88252 10.2816C6.88252 9.72824 7.03516 9.21309 7.2832 8.77426C8.75233 10.5868 10.9656 11.7698 13.4459 11.9033C13.3887 11.6935 13.3696 11.4454 13.3696 11.2165C13.3696 9.55653 14.7052 8.22095 16.3651 8.22095C17.2237 8.22095 18.006 8.58346 18.5402 9.15585C19.2271 9.02229 19.8567 8.77426 20.4482 8.43082C20.2192 9.13677 19.7422 9.70916 19.1317 10.0908C19.7422 10.0144 20.3146 9.8618 20.8489 9.61376C20.4673 10.2243 19.9712 10.7585 19.3797 11.1783Z" fill="white"/>
<defs>
<linearGradient id="paint0_linear_21_915" x1="-15.0381" y1="-43.549" x2="-104.428" y2="-11.8228" gradientUnits="userSpaceOnUse">
<stop stop-color="#353935"/>
<stop offset="1" stop-color="#2B3B30"/>
</linearGradient>
</defs>
</svg>
