<svg width="438" height="440" viewBox="0 0 438 440" fill="none" xmlns="http://www.w3.org/2000/svg">
<path d="M425.104 272.592C425.278 272.331 425.437 272.06 425.581 271.78C425.681 271.602 425.8 271.427 425.882 271.245C425.964 271.063 426.124 270.624 426.241 270.307C426.359 269.991 426.366 270.002 426.405 269.849C426.537 269.377 426.633 268.895 426.692 268.408L428.094 256.156C428.026 256.641 427.93 257.123 427.807 257.597L427.632 258.063C427.526 258.372 427.408 258.688 427.273 259.001L426.983 259.529C426.825 259.809 426.678 260.082 426.495 260.348L426.082 260.88C425.889 261.14 425.684 261.389 425.467 261.628C425.239 261.782 425.06 262.03 424.84 262.241L424.339 262.691C424.069 262.898 423.787 263.089 423.495 263.262L422.921 263.651C422.596 263.871 422.26 264.098 421.862 264.256L421.354 264.601C420.783 264.877 420.161 265.171 419.542 265.4L188.956 354.434C180.29 357.773 168.735 355.347 163.179 349.004L14.2349 179.373C13.1915 178.31 12.3872 177.036 11.8759 175.637C11.3647 174.238 11.1582 172.746 11.2703 171.26L9.87944 183.505C9.76735 184.99 9.97385 186.482 10.4851 187.882C10.9964 189.281 11.8006 190.555 12.844 191.618L161.777 361.256C167.344 367.592 178.899 370.017 187.554 366.686L418.199 277.739C418.839 277.495 419.429 277.223 420.011 276.939L420.519 276.595C420.866 276.361 421.246 276.198 421.578 275.989L422.141 275.608C422.437 275.432 422.722 275.239 422.996 275.029L423.497 274.58L423.955 274.16L424.124 273.966C424.341 273.728 424.546 273.478 424.739 273.219L425.104 272.592Z" fill="#8CA293"/>
<path d="M19.9175 161.714C24.4083 160.1 29.2681 159.808 33.9198 160.874L413.506 241.575C429.706 245.009 433.52 260.046 419.564 265.433L188.955 354.435C180.29 357.773 168.734 355.348 163.178 349.004L14.2345 179.374C8.12299 172.396 11.8637 164.86 19.9175 161.714Z" fill="#353935"/>
<path d="M324.821 288.821L324.413 288.591L324.34 288.53C324.221 288.503 324.096 288.517 323.986 288.569C323.875 288.621 323.785 288.708 323.729 288.817C323.708 288.929 323.715 289.045 323.75 289.154C323.785 289.263 323.847 289.361 323.93 289.44C324.032 289.559 324.157 289.657 324.298 289.727L324.364 289.825L324.799 289.814L324.907 289.741C325.004 289.628 325.202 289.384 324.88 288.907L324.821 288.821Z" fill="#C4D7CA"/>
<path d="M305.885 262.169L305.489 262.074C305.385 262.118 305.275 262.144 305.163 262.152C305.029 262.102 304.903 262.033 304.788 261.948L304.446 261.863L304.234 261.549C304.166 261.474 304.11 261.391 304.065 261.3C303.9 261.177 303.747 261.037 303.609 260.883C303.496 260.785 303.411 260.658 303.362 260.517C303.313 260.375 303.303 260.223 303.332 260.076C303.35 260.023 303.385 259.976 303.432 259.945C303.479 259.913 303.535 259.897 303.592 259.9C303.716 259.595 304.003 259.622 304.232 259.703L304.298 259.801L304.363 259.757L304.523 259.854C304.698 259.855 304.87 259.895 305.028 259.97L305.133 260.009L305.287 260.236C305.567 260.297 305.819 260.449 306.005 260.667C306.042 260.709 306.074 260.757 306.1 260.807L306.166 260.905L306.156 261.006C306.236 261.076 306.296 261.166 306.332 261.266C306.37 261.326 306.393 261.394 306.4 261.465C306.407 261.536 306.396 261.607 306.37 261.673C306.343 261.739 306.301 261.797 306.248 261.843C306.194 261.89 306.13 261.923 306.061 261.939L305.942 262.02L305.885 262.169Z" fill="#C4D7CA"/>
<path d="M324.624 294.385L324.784 294.434L324.964 294.817L325.087 294.813L325.627 295.237L325.7 295.345C325.706 295.443 325.684 295.54 325.637 295.625C325.668 295.69 325.682 295.761 325.68 295.833C325.678 295.904 325.659 295.975 325.625 296.038C325.591 296.101 325.543 296.155 325.484 296.196C325.425 296.237 325.357 296.263 325.286 296.273L325.215 296.447L325.161 296.484C325.037 296.517 324.907 296.517 324.782 296.485C324.658 296.453 324.545 296.389 324.452 296.3L324.325 296.276L324.215 296.114L324.095 296.053L323.868 295.717L323.831 295.663C323.646 295.615 323.479 295.514 323.351 295.373L323.307 295.308L323.211 295.025C323.227 294.999 323.249 294.975 323.275 294.958C323.301 294.94 323.331 294.928 323.362 294.923C323.336 294.843 323.333 294.758 323.353 294.676L323.461 294.603C323.585 294.537 323.701 294.458 323.808 294.369L324.046 294.207L324.348 294.35C324.441 294.343 324.535 294.354 324.624 294.385Z" fill="#C4D7CA"/>
<path d="M284.963 225.305L284.945 225.395L284.891 225.385L284.568 225.445L284.463 225.406L284.325 225.389L283.906 225.167L283.848 225.08C283.769 225.003 283.715 224.904 283.692 224.795C283.67 224.687 283.679 224.575 283.72 224.472L283.684 224.418L284.036 224.006L284.149 224.056L284.333 223.931L284.399 224.029C284.594 224.056 284.78 224.131 284.941 224.246L285.05 224.267L285.167 224.44L285.525 224.829L285.482 224.953C285.441 225.02 285.385 225.077 285.32 225.121C285.255 225.166 285.181 225.196 285.103 225.209C285.051 225.232 285.003 225.264 284.963 225.305Z" fill="#C4D7CA"/>
<path d="M314.478 273.608L315.132 273.781L315.115 273.919C315.188 273.993 315.245 274.083 315.281 274.18C315.317 274.278 315.332 274.383 315.326 274.487L315.531 274.79L315.504 275.077L315.45 275.113C315.396 275.15 315.415 275.248 315.35 275.292C315.318 275.417 315.257 275.533 315.173 275.631C315.089 275.729 314.983 275.807 314.864 275.857L314.526 275.801L314.482 275.736C314.288 275.626 314.115 275.481 313.972 275.308C313.842 275.16 313.731 274.997 313.642 274.821C313.529 274.759 313.427 274.679 313.339 274.584L313.244 274.443L313.188 274.197C313.298 273.816 313.714 273.778 314.01 273.751L314.037 273.749C314.156 273.757 314.276 273.731 314.381 273.674L314.478 273.608Z" fill="#C4D7CA"/>
<path d="M316.053 253.424L315.978 253.475L315.977 253.428C315.809 253.432 315.643 253.388 315.498 253.302C315.353 253.215 315.235 253.09 315.158 252.941L315.099 252.854L315.048 252.778L314.909 252.573C314.947 252.483 315.011 252.407 315.091 252.352C315.172 252.298 315.266 252.267 315.364 252.265L315.45 252.206L315.938 252.413L316.402 252.936L316.361 253.342L316.264 253.408C316.195 253.425 316.124 253.43 316.053 253.424Z" fill="#C4D7CA"/>
<path d="M301.537 233.537L301.223 233.655L300.556 233.301L300.523 233.134L300.457 233.037L300.541 232.601L300.693 232.593C300.909 232.58 301.123 232.641 301.3 232.766L301.43 232.678C301.514 232.641 301.606 232.622 301.698 232.622C301.79 232.622 301.882 232.641 301.966 232.678L302.01 232.743L302.331 232.984L302.375 233.049C302.438 233.15 302.468 233.267 302.461 233.386L302.38 233.709L302.246 233.721C302.038 233.733 301.833 233.67 301.668 233.543L301.624 233.479L301.537 233.537Z" fill="#C4D7CA"/>
<path d="M301.742 250.496C301.775 250.531 301.802 250.571 301.823 250.615L302.071 250.841L302.029 251.059L302.048 251.251L301.973 251.303C301.901 251.349 301.818 251.372 301.734 251.37L301.778 251.435C301.801 251.496 301.81 251.561 301.805 251.626C301.799 251.691 301.779 251.754 301.745 251.81C301.712 251.866 301.666 251.914 301.611 251.95C301.557 251.986 301.495 252.009 301.43 252.017L301.365 252.061L301.132 251.998C301.122 252.051 301.096 252.1 301.058 252.14C301.021 252.179 300.973 252.207 300.92 252.22C300.792 252.237 300.662 252.215 300.546 252.158C300.456 252.158 300.367 252.144 300.281 252.116C300.122 252.057 299.982 251.955 299.877 251.821C299.837 251.775 299.802 251.724 299.774 251.67L299.679 251.529L299.97 251.19L300.123 251.228C300.253 251.229 300.382 251.248 300.507 251.284L300.449 251.197C300.024 250.569 300.134 250.195 300.339 250.056L300.48 249.96L300.899 250.182L300.953 250.146L301.061 250.072L301.654 250.366L301.742 250.496Z" fill="#C4D7CA"/>
<path d="M294.043 234.71L294.235 234.737L294.231 234.661C294.487 234.736 294.716 234.882 294.894 235.081L294.938 235.146L295.095 235.261L295.145 235.779L295.037 235.852C294.847 235.881 294.653 235.856 294.476 235.781C294.299 235.705 294.147 235.581 294.037 235.424C294.013 235.377 293.983 235.334 293.949 235.294L293.839 235.132L294.043 234.71Z" fill="#C4D7CA"/>
<path d="M282.83 238.367C283.192 238.785 282.846 239.019 282.705 239.115L282.622 239.202L282.059 239.094L281.92 238.888C281.825 238.794 281.587 238.466 281.923 238.239L282.038 238.035L282.204 238.048C282.443 238.082 282.663 238.194 282.83 238.367Z" fill="#C4D7CA"/>
<path d="M267.5 233.839L267.565 233.795L267.561 233.719C267.683 233.718 267.804 233.743 267.916 233.793C268.029 233.842 268.129 233.914 268.212 234.004C268.264 234.056 268.303 234.119 268.326 234.189C268.348 234.259 268.354 234.334 268.341 234.406L268.517 234.666L268.615 234.694L268.703 234.824C268.768 234.884 268.816 234.96 268.843 235.045C268.87 235.129 268.874 235.219 268.855 235.305C268.835 235.338 268.808 235.366 268.776 235.387C268.745 235.409 268.709 235.423 268.671 235.43C268.653 235.461 268.628 235.488 268.598 235.509C268.568 235.529 268.534 235.542 268.498 235.547C268.256 235.632 267.965 235.482 267.837 235.41L267.478 235.322L267.353 235.138C267.228 235.011 267.153 234.843 267.143 234.664C267.112 234.628 267.085 234.588 267.062 234.545C266.957 234.439 266.891 234.3 266.875 234.151L266.831 234.086L267.08 233.918L267.145 233.874C267.232 233.872 267.318 233.883 267.402 233.905L267.5 233.839Z" fill="#C4D7CA"/>
<path d="M251.657 208.282C251.415 208.245 251.193 208.13 251.024 207.953L251.02 207.877C250.775 207.585 250.827 207.313 251.037 207.297C251.115 207.238 251.211 207.207 251.309 207.208L251.763 207.295L251.949 207.454L251.985 207.508C252.024 207.546 252.055 207.591 252.076 207.642C252.097 207.693 252.106 207.747 252.105 207.802C252.103 207.856 252.09 207.91 252.066 207.959C252.043 208.009 252.009 208.053 251.967 208.088L251.828 208.325L251.657 208.282Z" fill="#C4D7CA"/>
<path d="M285.889 264.161C286.051 264.218 286.198 264.314 286.315 264.441L286.311 264.364C286.432 264.435 286.535 264.533 286.614 264.649L286.902 264.959L286.805 265.025L286.922 265.198L286.76 265.402C286.763 265.462 286.75 265.521 286.722 265.574C286.693 265.626 286.651 265.67 286.599 265.7C286.17 265.872 285.692 265.874 285.261 265.706L284.92 265.574L284.756 265.543L284.646 265.38C284.327 265.062 284.119 264.649 284.054 264.202L284.282 264.048L284.347 264.005C284.443 264.002 284.536 263.967 284.611 263.905L284.773 263.795L285.099 263.811L285.136 263.865C285.196 263.89 285.253 263.92 285.307 263.954L285.358 264.03L285.423 263.986L285.547 264.029L285.889 264.161Z" fill="#C4D7CA"/>
<path d="M263.057 214.397L263.013 214.332C262.959 214.194 262.94 214.045 262.955 213.897C262.894 213.806 262.856 213.702 262.845 213.593L262.571 213.305L262.527 213.24L262.483 213.175L262.48 212.751L262.545 212.707L262.435 212.545L262.582 212.319C262.547 212.263 262.525 212.201 262.516 212.136C262.507 212.071 262.513 212.005 262.532 211.942C262.616 211.832 262.734 211.752 262.868 211.715L262.944 211.663L263.001 211.514L263.792 211.705L263.858 211.802C263.947 211.824 264.032 211.856 264.113 211.898L264.218 211.937L264.286 212.365L264.338 212.441L264.462 212.625C264.618 212.845 264.703 213.108 264.703 213.377C264.716 213.431 264.721 213.486 264.719 213.54L264.513 213.68L264.448 213.724L264.394 213.76C264.518 213.824 264.629 213.909 264.722 214.012C264.822 214.107 264.881 214.236 264.888 214.373C264.888 214.433 264.87 214.492 264.835 214.541C264.8 214.59 264.751 214.627 264.694 214.647C264.577 214.679 264.453 214.682 264.335 214.653L264.075 214.828L263.978 214.894L263.709 214.777C263.593 214.775 263.48 214.75 263.374 214.703L263.33 214.638L263.057 214.397Z" fill="#C4D7CA"/>
<path d="M297.936 275.268C297.892 275.214 297.852 275.156 297.819 275.094L297.855 275.054C297.807 274.96 297.705 274.856 297.639 274.758L297.573 274.661C297.547 274.615 297.518 274.572 297.485 274.531L297.404 274.412L297.318 273.981L297.383 273.937C297.389 273.865 297.412 273.795 297.451 273.733L297.591 273.638L297.656 273.594L297.732 273.543L297.884 273.44C298.505 273.335 299.084 273.839 299.431 274.142L299.433 274.144L299.667 274.349L299.718 274.425L299.931 274.739C299.977 274.796 300.019 274.858 300.055 274.923L300.099 274.988L300.057 275.253C299.861 275.405 299.655 275.544 299.44 275.67L299.299 275.766C299.277 275.822 299.238 275.871 299.188 275.905C299.138 275.939 299.079 275.957 299.018 275.956L298.953 276L298.542 275.789L298.483 275.702C298.449 275.663 298.419 275.619 298.395 275.573C298.22 275.509 298.063 275.404 297.936 275.268Z" fill="#C4D7CA"/>
<path d="M267.583 225.447L267.68 225.381L268.039 225.817L268.112 225.926L268.149 225.98C268.319 226.129 268.448 226.319 268.522 226.532C268.599 226.638 268.649 226.761 268.67 226.89L268.751 227.009L268.32 227.143C268.267 227.147 268.213 227.146 268.16 227.14C268.033 227.158 267.903 227.143 267.783 227.096L267.746 227.042C267.56 226.987 267.391 226.883 267.258 226.74C267.126 226.59 267.055 226.395 267.062 226.194L267.009 225.836L267.117 225.762C267.244 225.62 267.404 225.512 267.583 225.447Z" fill="#C4D7CA"/>
<path d="M320.135 297.012L319.986 296.955L319.502 296.777L319.414 296.647C319.016 296.175 319.169 295.866 319.245 295.72L319.287 295.597L319.569 295.5L319.66 295.518C319.904 295.557 320.127 295.679 320.29 295.865C320.508 295.901 320.707 296.013 320.851 296.18C320.92 296.25 320.971 296.336 320.999 296.43C321.027 296.524 321.031 296.624 321.01 296.72C320.985 296.801 320.932 296.871 320.861 296.919C320.791 296.967 320.706 296.99 320.62 296.983L320.508 296.981L320.341 296.873L320.135 297.012Z" fill="#C4D7CA"/>
<path d="M295.953 217.33L295.944 217.621L295.937 217.657L295.852 217.998L295.729 218.003C295.62 218.012 295.511 218 295.406 217.969L295.031 217.812L294.728 217.48L294.738 217.379L294.457 217.127L294.911 216.63L295.1 216.771C295.388 216.809 295.651 216.95 295.843 217.168L295.953 217.33Z" fill="#C4D7CA"/>
<path d="M323.046 239.03L322.938 239.103L322.406 238.69L322.347 238.603C322.021 238.145 322.186 237.923 322.444 237.859L322.519 237.808L322.985 237.983L323.051 238.08C323.076 238.131 323.108 238.178 323.146 238.221C323.301 238.37 323.393 238.573 323.404 238.788C323.377 238.861 323.329 238.924 323.264 238.967C323.2 239.011 323.124 239.033 323.046 239.03Z" fill="#C4D7CA"/>
<path d="M339.088 248.365C339.144 248.438 339.195 248.514 339.242 248.592L339.279 248.647C339.384 248.711 339.48 248.789 339.563 248.88L339.6 248.934L339.688 249.064L339.807 249.473L339.094 249.75L338.505 249.486L338.388 249.313L338.094 249.228L338.02 249.119L337.94 249C337.831 248.903 337.747 248.78 337.698 248.643C337.641 248.582 337.594 248.513 337.559 248.437L337.493 248.34C337.431 248.272 337.379 248.195 337.339 248.112L337.28 248.026L337.485 247.745L337.597 247.748C337.722 247.748 337.845 247.772 337.96 247.818L338.062 247.828C338.324 247.872 338.566 247.994 338.757 248.179L339.03 248.278L339.088 248.365Z" fill="#C4D7CA"/>
<path d="M338.583 234.578C338.744 234.769 338.8 235.015 338.572 235.169L338.425 235.301L337.872 235.091L337.762 234.928L337.558 234.814L337.478 234.694L337.472 234.684C337.38 234.502 337.316 234.378 337.525 234.252C337.738 234.123 338.095 234.23 338.153 234.316L338.444 234.372L338.583 234.578Z" fill="#C4D7CA"/>
<path d="M331.061 236.037C330.892 235.872 330.788 235.651 330.767 235.416L330.809 235.198L330.75 235.111L330.73 234.778L331.135 234.63L331.411 234.758L332.118 235.149C332.365 235.2 332.588 235.333 332.751 235.525C332.811 235.59 332.86 235.662 332.898 235.742L333.044 235.958L332.909 236.318L332.812 236.384C332.777 236.473 332.716 236.55 332.637 236.604C332.557 236.657 332.463 236.686 332.368 236.685L332.303 236.728L331.906 236.586L331.855 236.51L331.335 236.325L331.061 236.037Z" fill="#C4D7CA"/>
<path d="M356.084 270.773L356.046 270.717C355.83 270.701 355.625 270.613 355.466 270.466L354.982 270.241L354.894 270.111L354.762 269.916C354.754 269.895 354.742 269.877 354.725 269.862L354.645 269.742L354.893 269.432L355.049 269.453L355.114 269.409C355.348 269.375 355.587 269.411 355.8 269.513L355.931 269.567L356.121 269.848C356.259 269.924 356.383 270.021 356.49 270.136L356.556 270.233L356.634 270.559L356.58 270.596C356.528 270.676 356.452 270.737 356.362 270.769C356.273 270.801 356.175 270.802 356.084 270.773Z" fill="#C4D7CA"/>
<path d="M354.283 268.345L354.053 268.659L353.886 268.598C353.55 268.471 353.25 268.261 353.015 267.988C352.773 267.735 352.623 267.408 352.592 267.059L352.548 266.994L352.786 266.833L352.851 266.789C352.992 266.786 353.131 266.751 353.256 266.688L353.332 266.637L353.783 266.742L353.856 266.851C353.98 266.946 354.095 267.054 354.199 267.171C354.255 267.243 354.307 267.319 354.353 267.398C354.407 267.488 354.465 267.575 354.529 267.658L354.646 267.831C354.652 267.945 354.619 268.058 354.553 268.151C354.488 268.244 354.393 268.312 354.283 268.345Z" fill="#C4D7CA"/>
<path d="M349.324 252.41C349.508 252.68 349.462 252.916 349.202 252.998L349.216 253.02C349.039 253.047 348.858 253.03 348.689 252.971C348.52 252.912 348.368 252.813 348.246 252.682L348.062 252.411L348.26 252.073L348.383 252.068C348.469 252.07 348.556 252.08 348.64 252.099L348.695 252.062L348.807 252.065L349.258 252.312L349.324 252.41Z" fill="#C4D7CA"/>
<path d="M346.954 242.679L347.057 242.83L347.082 242.845C347.166 242.946 347.24 243.054 347.545 243.226L347.877 243.506L347.936 243.593C347.98 243.707 347.992 243.831 347.971 243.952C347.949 244.072 347.895 244.184 347.814 244.276C347.786 244.515 347.454 244.63 347.141 244.589C346.96 244.555 346.79 244.473 346.65 244.353L346.407 244.343L346.29 244.17C346.22 244.081 346.157 243.987 346.099 243.889C345.909 243.678 345.748 243.441 345.623 243.185L345.469 242.958L345.627 242.63L345.59 242.576L345.839 242.407L345.904 242.363C346.087 242.36 346.27 242.392 346.441 242.458C346.591 242.461 346.738 242.496 346.874 242.56L346.954 242.679Z" fill="#C4D7CA"/>
<path d="M363.921 275.494C363.714 275.436 363.528 275.322 363.382 275.165L363.407 275.179C363.243 275.006 363.132 274.749 363.454 274.595L363.488 274.319L363.651 274.303C363.82 274.3 363.988 274.339 364.138 274.416C364.27 274.442 364.395 274.499 364.502 274.58L364.749 274.618L364.998 274.987L365.087 275.258C365.074 275.316 365.047 275.369 365.009 275.414C364.971 275.459 364.922 275.495 364.867 275.517L364.502 275.654L364.27 275.59L364.135 275.555L363.921 275.494Z" fill="#C4D7CA"/>
<path d="M328.121 266.427L328.325 266.495L328.706 266.521L328.554 266.624C328.609 266.692 328.658 266.764 328.701 266.84C328.874 267.032 328.982 267.274 329.01 267.531L329.069 267.617L328.722 267.852L328.58 267.806C328.375 267.73 328.192 267.604 328.048 267.44L327.714 267.271L327.648 267.174C327.45 266.929 327.423 266.726 327.499 266.675C327.523 266.611 327.566 266.556 327.622 266.518C327.679 266.48 327.745 266.461 327.813 266.462L327.943 266.374L328.121 266.427Z" fill="#C4D7CA"/>
<path d="M348.597 276.109L348.293 276.22L348.411 275.95C348.227 275.91 348.061 275.812 347.938 275.671C347.885 275.619 347.846 275.556 347.824 275.486C347.801 275.416 347.796 275.342 347.808 275.269L347.647 275.031L347.559 274.901C347.47 274.724 347.43 274.641 347.574 274.48C347.718 274.32 347.997 274.383 348.132 274.418L348.583 274.618L348.688 274.657C348.789 274.716 348.883 274.784 348.969 274.862C348.998 274.895 349.022 274.932 349.042 274.971L349.145 275.122C349.256 275.195 349.36 275.278 349.455 275.37C349.514 275.435 349.564 275.508 349.601 275.587L349.66 275.673L349.567 275.91L349.414 275.824L349.488 275.932L349.185 276.137L348.959 276.037C348.853 276.108 348.722 276.134 348.597 276.109Z" fill="#C4D7CA"/>
<path d="M319.159 229.11L319.083 229.162L319.109 229.176C319.099 229.237 319.072 229.294 319.03 229.34C319.024 229.381 319.009 229.421 318.987 229.456C318.965 229.492 318.936 229.522 318.901 229.546C318.866 229.569 318.827 229.585 318.786 229.592C318.745 229.6 318.703 229.599 318.662 229.589L318.597 229.633L318.197 229.414L318.138 229.328C318.118 229.31 318.103 229.288 318.094 229.263L317.825 229.145L317.73 229.004C317.696 228.932 317.575 228.73 317.672 228.57C317.7 228.512 317.743 228.462 317.796 228.426C317.849 228.39 317.911 228.369 317.975 228.364L318.04 228.32L318.138 228.254C318.299 228.213 318.469 228.219 318.628 228.271C318.786 228.324 318.926 228.42 319.032 228.549C319.117 228.626 319.183 228.723 319.222 228.831L319.266 228.896L319.159 229.11Z" fill="#C4D7CA"/>
<path d="M318.013 239.917C317.988 239.814 317.998 239.706 318.039 239.609L317.943 239.421L318.205 239.481L317.957 239.348L318.043 239.101L318.129 239.043C318.265 239.031 318.402 239.052 318.528 239.104C318.654 239.156 318.765 239.238 318.853 239.342C318.898 239.385 318.933 239.436 318.956 239.494C319.058 239.568 319.152 239.652 319.237 239.746C319.271 239.785 319.301 239.829 319.324 239.876L319.398 239.984C319.454 240.23 319.313 240.325 319.248 240.369L319.063 240.4L318.944 240.48C318.78 240.521 318.607 240.505 318.454 240.433L318.269 240.322L318.173 240.181C318.093 240.112 318.037 240.02 318.013 239.917Z" fill="#C4D7CA"/>
<path d="M339.348 253.904L339.614 254.134L339.628 254.062L339.687 254.148L339.768 254.267C339.813 254.321 339.852 254.379 339.885 254.441L339.929 254.506L339.987 254.592C340.127 254.798 340.292 255.16 339.811 255.312L339.744 255.562L339.657 255.621C339.508 255.641 339.356 255.624 339.215 255.573C339.09 255.584 338.965 255.573 338.844 255.539L338.655 255.446L338.569 255.505L338.342 255.311C338.306 255.273 338.277 255.229 338.255 255.181C338.215 255.103 338.165 255.03 338.108 254.964L337.952 254.897L337.644 254.442C337.599 254.354 337.563 254.262 337.537 254.167L337.493 254.102L337.42 253.994C337.364 253.842 337.271 253.494 337.651 253.379C337.778 253.188 338.048 253.273 338.211 253.324L338.235 253.332L338.438 253.399L338.776 253.549L338.82 253.614C338.927 253.658 339.03 253.709 339.13 253.768L339.311 253.85L339.348 253.904Z" fill="#C4D7CA"/>
<path d="M321.078 251.476C321.169 251.469 321.26 251.483 321.345 251.516L321.371 251.531C321.572 251.598 321.753 251.714 321.899 251.868C321.923 251.914 321.952 251.958 321.987 251.998L322.053 252.095L322.081 252.439C322.061 252.516 322.013 252.583 321.948 252.628C321.882 252.672 321.802 252.691 321.723 252.681L321.658 252.725L321.269 252.499L321.217 252.424C321.172 252.371 321.133 252.312 321.1 252.25L321.012 252.12L320.69 251.644L320.82 251.556C320.899 251.51 320.987 251.482 321.078 251.476Z" fill="#C4D7CA"/>
<path d="M330.018 238.747C330.015 238.85 329.978 238.948 329.911 239.026C329.914 239.151 329.869 239.273 329.784 239.366C329.7 239.458 329.583 239.514 329.457 239.522L329.312 239.541L329.16 239.455C329.035 239.444 328.914 239.408 328.803 239.349C328.714 239.335 328.627 239.309 328.545 239.271C328.439 239.215 328.342 239.142 328.257 239.056L328.127 239.049L327.973 238.822C327.878 238.729 327.821 238.604 327.815 238.471C327.366 237.528 328.003 237.349 328.441 237.321L328.641 237.359C329.011 237.509 329.346 237.734 329.625 238.02C329.726 238.135 329.812 238.262 329.881 238.399L329.925 238.464C329.988 238.545 330.021 238.645 330.018 238.747Z" fill="#C4D7CA"/>
<path d="M307.098 297.531L307.251 297.617L307.238 297.831C307.26 297.883 307.272 297.94 307.272 297.997C307.319 298.055 307.36 298.116 307.397 298.181L307.47 298.29L307.356 298.635L307.27 298.693L307.172 298.759L307.209 298.814L307.153 299.151L307.001 299.159C306.901 299.17 306.801 299.157 306.707 299.122L306.603 299.271L306.465 299.254C306.298 299.235 306.138 299.175 306 299.079C305.849 299.066 305.704 299.018 305.574 298.941C305.441 298.854 305.319 298.751 305.21 298.635L305.078 298.44L305.012 298.343L304.844 298.235L304.791 297.924L304.659 297.729C304.544 297.621 304.452 297.491 304.389 297.346C304.326 297.201 304.294 297.044 304.294 296.886C304.31 296.782 304.359 296.686 304.435 296.612C304.51 296.538 304.608 296.491 304.712 296.477L304.831 296.397L305.276 296.68C305.397 296.724 305.513 296.784 305.618 296.859L306.128 297.193L306.225 297.127L306.334 297.054L307.01 297.401L307.098 297.531Z" fill="#C4D7CA"/>
<path d="M357.447 288.369C357.231 288.379 357.02 288.308 356.854 288.17C356.736 288.164 356.621 288.133 356.516 288.079C356.411 288.025 356.319 287.948 356.247 287.855L356.181 287.758L356.144 287.704L355.856 287.488L355.731 287.304L355.673 287.217C355.659 287.174 355.656 287.127 355.663 287.082C355.67 287.036 355.687 286.993 355.713 286.955C355.74 286.918 355.774 286.887 355.815 286.864C355.855 286.842 355.9 286.83 355.946 286.828L356 286.791L356.243 286.847L356.403 286.897C356.43 286.819 356.481 286.751 356.549 286.705C356.618 286.659 356.7 286.636 356.782 286.64C356.967 286.671 357.14 286.75 357.284 286.869C357.346 286.839 357.414 286.82 357.483 286.813L357.537 286.777L357.861 286.858L357.904 286.923C358.04 287.006 358.163 287.109 358.269 287.228C358.328 287.293 358.378 287.366 358.416 287.445C358.426 287.484 358.45 287.518 358.482 287.542L358.584 287.694L358.587 288.118L358.142 288.277L357.881 288.265C357.782 288.293 357.678 288.298 357.577 288.281L357.523 288.318L357.447 288.369Z" fill="#C4D7CA"/>
<path d="M259.518 282.276L259.708 282.557L259.956 282.69L260.288 282.97L260.346 283.057C260.369 283.184 260.241 283.507 260.213 283.747C260.186 283.986 259.853 284.101 259.541 284.06C259.366 284.019 259.201 283.942 259.057 283.834L258.807 283.814L258.697 283.652L258.506 283.37C258.315 283.159 258.155 282.922 258.03 282.667L257.876 282.439L258.026 282.101L257.989 282.047L258.239 281.878L258.303 281.834C258.484 281.817 258.667 281.845 258.833 281.918C258.987 281.92 259.137 281.959 259.273 282.031L259.415 282.124L259.518 282.276Z" fill="#C4D7CA"/>
<path d="M244.924 257.002C244.858 257.047 244.78 257.07 244.7 257.067L244.66 257.126L244.05 256.97L243.947 256.819C243.772 256.606 243.701 256.338 243.853 256.236C243.953 256.148 244.078 256.092 244.21 256.075C244.342 256.059 244.477 256.083 244.596 256.143L244.632 256.198L244.873 256.366L244.909 256.42C245.01 256.528 245.067 256.67 245.068 256.818C245.041 256.893 244.99 256.958 244.924 257.002Z" fill="#C4D7CA"/>
<path d="M254.137 251.628C254.402 252.159 254.318 252.548 253.913 252.743L253.895 252.786L253.339 252.594L253.259 252.475L253.171 252.345C252.972 252.197 252.786 252.032 252.616 251.852L252.513 251.701L252.478 251.346L252.543 251.302C252.617 251.23 252.707 251.179 252.806 251.154C252.905 251.129 253.009 251.129 253.108 251.156C253.251 251.128 253.398 251.131 253.539 251.164L253.576 251.218L253.664 251.348L254.028 251.465L254.137 251.628Z" fill="#C4D7CA"/>
<path d="M228.674 224.009L228.608 223.912L228.621 223.651L228.548 223.543C228.449 223.373 228.408 223.29 228.552 223.129C228.69 222.976 228.951 223.027 229.101 223.056L229.121 223.06L229.718 223.382L229.772 223.346L229.877 223.385C229.981 223.438 230.076 223.507 230.158 223.589C230.189 223.626 230.216 223.666 230.239 223.709L230.297 223.795C230.415 223.858 230.521 223.942 230.607 224.043C230.667 224.108 230.716 224.181 230.754 224.26L230.813 224.346L230.72 224.583L230.567 224.497L230.64 224.605L230.348 224.803L230.112 224.71C230.058 224.747 229.997 224.773 229.933 224.787C229.869 224.8 229.803 224.801 229.739 224.789L229.424 224.907L229.277 224.691C229.096 224.648 228.933 224.548 228.815 224.404C228.759 224.356 228.716 224.295 228.692 224.225C228.667 224.156 228.661 224.082 228.674 224.009Z" fill="#C4D7CA"/>
<path d="M246.419 260.751L246.331 260.621L246.233 260.545L246.259 260.164L246.736 259.983L247.436 260.41L247.451 260.573L247.539 260.703L247.524 261.124L247.426 261.19C247.234 261.216 247.039 261.188 246.861 261.111C246.684 261.034 246.531 260.909 246.419 260.751Z" fill="#C4D7CA"/>
<path d="M238.214 237.017C238.113 236.983 238.019 236.929 237.938 236.858L237.884 236.895C237.711 236.827 237.565 236.703 237.472 236.542L237.526 236.506C237.506 236.472 237.484 236.439 237.46 236.408L237.423 236.354L237.128 236.128L236.949 235.98L236.89 235.894C236.877 235.85 236.873 235.803 236.88 235.758C236.888 235.712 236.905 235.669 236.931 235.632C236.958 235.594 236.992 235.563 237.032 235.541C237.073 235.519 237.117 235.506 237.163 235.504L237.407 235.56L237.567 235.61C237.593 235.532 237.645 235.464 237.713 235.418C237.781 235.372 237.863 235.349 237.946 235.353C238.129 235.382 238.3 235.464 238.437 235.589C238.506 235.554 238.581 235.53 238.658 235.519L238.981 235.6L239.025 235.665C239.164 235.744 239.288 235.847 239.39 235.971C239.443 236.039 239.492 236.112 239.536 236.187L239.602 236.285L239.705 236.436L239.718 236.853L239.263 237.019L239.001 237.007L238.965 236.953C238.869 236.981 238.768 236.984 238.671 236.962L238.617 236.999L238.53 237.057C238.423 237.065 238.316 237.051 238.214 237.017Z" fill="#C4D7CA"/>
<path d="M282.616 297.876C282.754 297.879 282.887 297.924 282.998 298.006L283.096 298.035L283.235 298.24C283.275 298.278 283.306 298.324 283.326 298.375C283.347 298.425 283.357 298.48 283.355 298.534C283.353 298.589 283.34 298.643 283.317 298.692C283.293 298.741 283.259 298.785 283.218 298.821L283.078 299.057L282.904 299.033C282.663 298.984 282.444 298.863 282.274 298.686C282.029 298.394 282.067 298.1 282.229 297.99C282.343 297.913 282.479 297.873 282.616 297.876Z" fill="#C4D7CA"/>
<path d="M218.996 203.737L218.689 203.282C218.661 203.272 218.638 203.251 218.626 203.224C218.613 203.197 218.612 203.166 218.622 203.138C218.633 203.11 218.654 203.087 218.681 203.075C218.708 203.062 218.739 203.061 218.767 203.072C218.7 203.002 218.645 202.921 218.606 202.833L218.562 202.768L218.489 202.66C218.433 202.508 218.34 202.161 218.72 202.046C218.853 201.845 219.144 201.948 219.303 201.998L219.507 202.066L219.845 202.215L219.889 202.28C219.999 202.322 220.106 202.371 220.209 202.427C220.262 202.464 220.32 202.494 220.38 202.516L220.417 202.571L220.673 202.808L220.717 202.873L220.775 202.96L220.856 203.079L220.973 203.252L221.017 203.317L221.076 203.404C221.226 203.602 221.391 203.963 220.899 204.123L220.832 204.373L220.756 204.425C220.604 204.447 220.449 204.433 220.303 204.384C220.185 204.401 220.064 204.391 219.951 204.354L219.743 204.258L219.657 204.316L219.431 204.122L219.343 203.992C219.284 203.924 219.216 203.864 219.142 203.812L218.996 203.737Z" fill="#C4D7CA"/>
<path d="M278.902 290.88L278.976 291.13L278.95 291.068C278.858 291.129 278.754 291.17 278.645 291.189C278.536 291.209 278.424 291.206 278.316 291.182L278.299 291.272L278.212 291.331C278.077 291.347 277.941 291.329 277.814 291.28C277.687 291.231 277.574 291.152 277.485 291.05L277.434 290.974L277.237 290.87L277.149 290.74C277.129 290.667 277.115 290.591 277.108 290.515L276.9 290.325L276.986 290.266L276.979 290.244C276.93 290.102 276.857 289.892 276.997 289.722C277.175 289.572 277.401 289.492 277.634 289.497L277.797 289.481L278.069 289.533L278.106 289.588C278.218 289.643 278.319 289.72 278.401 289.814C278.438 289.857 278.47 289.905 278.496 289.955C278.604 290.015 278.7 290.094 278.781 290.188C278.89 290.308 278.963 290.456 278.991 290.615C278.996 290.663 278.991 290.712 278.976 290.757C278.961 290.803 278.935 290.845 278.902 290.88Z" fill="#C4D7CA"/>
<path d="M263.734 268.024L263.859 268.208L264.162 268.634L264.151 269.037L263.847 269.148L263.578 269.077C263.502 269.136 263.41 269.171 263.314 269.177C262.923 269.149 262.556 268.974 262.288 268.687L262.185 268.535L262.147 268.246L262.201 268.209L262.331 268.121L262.321 267.733L262.397 267.682L262.495 267.616L262.581 267.557C262.78 267.534 262.982 267.582 263.148 267.695L263.734 268.024Z" fill="#C4D7CA"/>
<path d="M219.095 214.263L219.335 214.432C219.422 214.484 219.491 214.56 219.536 214.65C219.58 214.74 219.597 214.842 219.586 214.942C219.543 215.112 219.315 215.125 219.228 215.184L219.131 215.25L218.531 215.087L218.436 214.946C218.253 214.723 218.193 214.447 218.345 214.345C218.449 214.26 218.575 214.208 218.708 214.193C218.841 214.179 218.975 214.203 219.095 214.263Z" fill="#C4D7CA"/>
<path d="M202.345 201.224L202.294 201.148C202.265 201.105 202.217 201.058 202.133 200.91C202.125 200.875 202.104 200.844 202.074 200.823L201.752 200.347L201.882 200.259C201.961 200.213 202.049 200.185 202.14 200.178C202.231 200.171 202.322 200.185 202.407 200.219C202.649 200.296 202.863 200.442 203.023 200.639L203.118 200.78L203.177 200.866L203.194 201.218C203.174 201.295 203.127 201.362 203.061 201.406C202.995 201.451 202.915 201.47 202.837 201.46L202.746 201.442L202.345 201.224Z" fill="#C4D7CA"/>
<path d="M356.84 249.029L356.848 249.228C356.892 249.735 356.54 249.752 356.191 249.61C355.959 249.591 355.743 249.482 355.591 249.306L355.554 249.252L355.407 249.035C355.409 248.999 355.418 248.965 355.436 248.934C355.453 248.902 355.478 248.876 355.508 248.857L355.618 248.577L355.694 248.525C355.848 248.495 356.007 248.507 356.154 248.561C356.301 248.614 356.431 248.706 356.53 248.828L356.567 248.882L356.84 249.029Z" fill="#C4D7CA"/>
<path d="M231.466 240.101C231.619 240.325 231.7 240.59 231.696 240.861L231.574 241.054C231.586 241.108 231.592 241.163 231.59 241.217L231.395 241.349L231.33 241.393L231.265 241.437C231.392 241.495 231.504 241.581 231.593 241.689C231.706 241.77 231.787 241.889 231.82 242.025C231.814 242.083 231.792 242.138 231.757 242.184C231.721 242.231 231.674 242.266 231.619 242.287C231.503 242.326 231.377 242.328 231.26 242.293L230.963 242.415L230.866 242.481L230.589 242.352C230.475 242.345 230.362 242.321 230.255 242.278L230.211 242.213L229.938 241.972L229.894 241.907C229.818 241.775 229.782 241.625 229.789 241.473C229.724 241.384 229.685 241.279 229.678 241.169L229.394 240.888L229.35 240.823L229.306 240.758L229.292 240.341L229.357 240.297L229.24 240.124L229.387 239.898C229.354 239.844 229.333 239.783 229.326 239.72C229.318 239.657 229.325 239.593 229.344 239.532C229.382 239.474 229.431 239.423 229.488 239.384C229.546 239.345 229.611 239.318 229.68 239.305L229.766 239.247L229.813 239.105L230.604 239.295L230.678 239.403C230.766 239.42 230.853 239.447 230.936 239.481L230.987 239.557L231.29 239.842L231.341 239.917C231.371 239.986 231.414 240.048 231.466 240.101Z" fill="#C4D7CA"/>
<path d="M271.938 297.992L271.843 297.852L271.672 297.762C271.577 297.67 271.502 297.56 271.452 297.437L271.421 297.206C271.447 297.146 271.489 297.095 271.543 297.059C271.597 297.022 271.66 297.002 271.724 297L271.779 296.964L271.927 296.974C272.055 296.977 272.18 297.008 272.294 297.064C272.408 297.12 272.509 297.2 272.59 297.299C272.644 297.356 272.689 297.422 272.721 297.494L273.169 297.712L273.264 297.853C273.287 297.904 273.3 297.959 273.302 298.015C273.303 298.071 273.293 298.127 273.273 298.18C273.252 298.232 273.221 298.279 273.182 298.319C273.142 298.359 273.095 298.391 273.043 298.413L272.967 298.464L272.524 298.369L272.458 298.272C272.387 298.224 272.322 298.167 272.265 298.103L272.214 298.027L271.938 297.992Z" fill="#C4D7CA"/>
<path d="M277.448 314.392L277.537 314.663L277.516 314.772C277.499 314.831 277.47 314.885 277.43 314.931C277.39 314.977 277.341 315.014 277.285 315.039L276.927 315.186L276.688 315.112L276.564 315.069L276.35 315.009C276.146 314.945 275.961 314.831 275.811 314.679C275.657 314.499 275.536 314.249 275.85 314.037L275.915 313.993L275.938 313.724L276.101 313.709C276.268 313.704 276.433 313.745 276.577 313.829C276.713 313.858 276.843 313.908 276.963 313.978L277.199 314.024L277.448 314.392Z" fill="#C4D7CA"/>
<path d="M236.525 219.234L236.041 219.008L235.946 218.915C235.895 218.855 235.85 218.79 235.814 218.72L235.777 218.666L235.697 218.547L235.956 218.229L236.101 218.257L236.177 218.206C236.408 218.183 236.641 218.221 236.852 218.318L236.983 218.371L237.173 218.653C237.311 218.73 237.438 218.824 237.552 218.933L237.604 219.009L237.671 219.342C237.621 219.419 237.548 219.478 237.462 219.51C237.376 219.543 237.282 219.547 237.194 219.523L237.135 219.436C236.915 219.436 236.701 219.365 236.525 219.234Z" fill="#C4D7CA"/>
<path d="M278.081 303.686C278.067 303.901 277.846 303.924 277.76 303.982L277.727 303.957L276.985 303.607L276.882 303.455C276.856 303.368 276.86 303.274 276.895 303.19C276.93 303.106 276.994 303.036 277.075 302.994L277.194 302.913L277.709 302.975L277.79 303.094C277.839 303.155 277.883 303.22 277.922 303.289C277.974 303.341 278.015 303.403 278.043 303.471C278.07 303.539 278.083 303.613 278.081 303.686Z" fill="#C4D7CA"/>
<path d="M269.178 288.525L269.197 288.717L269.23 288.695C269.262 289.21 268.933 289.26 268.529 289.106C268.303 289.083 268.093 288.979 267.936 288.813L267.892 288.748L267.746 288.532C267.755 288.462 267.791 288.398 267.846 288.353L267.956 288.073L268.032 288.022C268.186 287.993 268.344 288.006 268.491 288.059C268.638 288.112 268.769 288.204 268.868 288.324L268.912 288.389L269.178 288.525Z" fill="#C4D7CA"/>
<path d="M296.769 293.091L296.601 293.426L296.467 293.391C296.212 293.361 295.978 293.239 295.808 293.047C295.745 292.982 295.696 292.904 295.666 292.819C295.635 292.733 295.623 292.642 295.63 292.552C295.658 292.466 295.714 292.392 295.788 292.342C295.863 292.292 295.952 292.267 296.042 292.273L296.118 292.222L296.616 292.469L296.689 292.577C296.745 292.649 296.782 292.734 296.796 292.824C296.81 292.914 296.801 293.006 296.769 293.091Z" fill="#C4D7CA"/>
<path d="M268.602 253.174L268.689 253.115L269.21 253.441L269.334 253.625L269.689 254.033L269.67 254.424L269.373 254.546L268.894 254.397L268.82 254.289L268.725 254.148L268.688 254.094L268.615 253.986C268.579 253.942 268.547 253.895 268.52 253.845C268.326 253.629 268.234 253.328 268.602 253.174Z" fill="#C4D7CA"/>
<path d="M267.767 239.436L267.887 239.45C268.078 239.395 268.28 239.393 268.473 239.443C268.665 239.494 268.84 239.595 268.98 239.736L269.039 239.822L269.114 240.166L269.081 240.188C268.976 240.308 268.842 240.399 268.692 240.452C268.593 240.5 268.502 240.562 268.421 240.635L268.334 240.694L267.797 240.553L267.672 240.368C267.38 240.03 267.432 239.757 267.497 239.713L267.767 239.436Z" fill="#C4D7CA"/>
<path d="M277.228 253.019L277.14 252.889L277.493 252.524L277.653 252.574C277.868 252.644 278.061 252.769 278.214 252.936C278.332 253.051 278.403 253.206 278.413 253.37C278.405 253.442 278.376 253.511 278.328 253.565C278.28 253.62 278.217 253.659 278.146 253.677L278.038 253.75L277.43 253.435L277.342 253.305C277.307 253.231 277.281 253.153 277.265 253.073C277.251 253.056 277.239 253.038 277.228 253.019Z" fill="#C4D7CA"/>
<path d="M275.201 264.021C275.099 263.918 275.017 263.797 274.96 263.664L274.89 263.631L275.026 263.366C275.005 263.251 275.018 263.132 275.064 263.025L275.237 262.907C275.382 262.914 275.526 262.939 275.665 262.981L275.774 263.002L275.85 262.95L275.985 262.986L276.374 263.117L276.483 263.28C276.573 263.376 276.647 263.486 276.703 263.604C276.714 263.628 276.729 263.65 276.747 263.669L276.806 263.756L276.93 263.94C276.958 263.969 276.98 264.002 276.996 264.037L277.136 264.243C277.158 264.298 277.162 264.358 277.146 264.415C277.13 264.472 277.095 264.521 277.047 264.556L276.961 264.614C276.733 264.768 276.599 264.78 276.599 264.78C276.425 264.785 276.252 264.758 276.087 264.7L275.531 264.508L275.421 264.346C275.4 264.307 275.376 264.271 275.348 264.237C275.295 264.168 275.246 264.096 275.201 264.021Z" fill="#C4D7CA"/>
<path d="M296.886 281.204L296.974 281.334C297.008 281.4 297.024 281.475 297.02 281.55C297.015 281.624 296.991 281.697 296.949 281.759C296.907 281.821 296.85 281.871 296.782 281.903C296.714 281.935 296.639 281.949 296.565 281.942L296.478 282.001L295.954 281.787L295.874 281.668C295.716 281.458 295.533 281.093 296.115 280.904L296.234 280.824L296.42 280.935L296.886 281.204Z" fill="#C4D7CA"/>
<path d="M246.863 212.932C246.82 213.103 246.592 213.115 246.505 213.174L246.517 213.214L245.767 212.852L245.672 212.712C245.647 212.624 245.651 212.529 245.685 212.444C245.718 212.359 245.779 212.287 245.857 212.239L245.976 212.158L246.484 212.209L246.565 212.328C246.615 212.394 246.662 212.463 246.704 212.534C246.756 212.586 246.798 212.648 246.825 212.716C246.852 212.785 246.865 212.858 246.863 212.932Z" fill="#C4D7CA"/>
<path d="M240.585 206.035L240.726 206.034L240.734 206.045C240.975 206.092 241.188 206.231 241.327 206.432C241.382 206.489 241.427 206.555 241.459 206.627L241.907 206.845L242.002 206.986C242.027 207.037 242.042 207.092 242.044 207.149C242.047 207.206 242.037 207.262 242.016 207.315C241.995 207.368 241.964 207.416 241.923 207.455C241.883 207.495 241.834 207.526 241.781 207.546L241.705 207.597L241.262 207.502L241.196 207.405C241.125 207.35 241.058 207.29 240.996 207.225C240.986 207.2 240.971 207.178 240.952 207.16L240.676 207.126L240.581 206.985C240.538 206.941 240.503 206.89 240.478 206.833C240.379 206.745 240.304 206.633 240.258 206.509L240.228 206.277C240.252 206.216 240.294 206.164 240.348 206.128C240.402 206.091 240.466 206.072 240.531 206.072L240.585 206.035Z" fill="#C4D7CA"/>
<path d="M272.616 252.264C272.444 252.201 272.291 252.097 272.169 251.959L272.071 251.884L271.924 251.667L271.926 251.413C271.957 251.363 271.997 251.32 272.046 251.287C272.095 251.254 272.15 251.232 272.208 251.223C272.24 251.18 272.286 251.15 272.338 251.135C272.536 251.032 272.791 251.128 272.94 251.185C273.14 251.163 273.343 251.188 273.532 251.257C273.721 251.326 273.892 251.438 274.031 251.584L274.148 251.757L274.074 252.138L273.977 252.204C273.84 252.227 273.7 252.213 273.571 252.164C273.498 252.247 273.405 252.311 273.3 252.347L273.155 252.319C272.973 252.346 272.788 252.327 272.616 252.264Z" fill="#C4D7CA"/>
<path d="M287.018 284.772L287.718 285.198L287.715 285.405L287.803 285.535L287.781 285.945L287.683 286.011C287.491 286.034 287.297 286.005 287.12 285.928C286.943 285.851 286.789 285.728 286.676 285.572L286.588 285.442L286.515 285.334L286.541 284.953L287.018 284.772Z" fill="#C4D7CA"/>
<path d="M296.093 304.363L295.887 304.502L295.664 304.685C295.787 304.748 295.899 304.833 295.992 304.936C296.043 304.985 296.084 305.044 296.112 305.11C296.14 305.175 296.154 305.245 296.154 305.316C296.151 305.373 296.131 305.427 296.097 305.472C296.064 305.518 296.017 305.552 295.964 305.571C295.844 305.609 295.716 305.614 295.594 305.585C295.502 305.631 295.407 305.669 295.308 305.699L295.211 305.765L294.934 305.636C294.819 305.634 294.705 305.609 294.6 305.563L294.556 305.498L294.283 305.257L294.224 305.17C294.146 305.041 294.106 304.893 294.109 304.743C294.049 304.651 294.011 304.547 293.998 304.439L293.724 304.151L293.687 304.097L293.673 303.68L293.749 303.628L293.632 303.455L293.779 303.229C293.743 303.176 293.721 303.115 293.714 303.051C293.706 302.988 293.714 302.923 293.736 302.863C293.774 302.805 293.823 302.754 293.881 302.715C293.939 302.676 294.004 302.649 294.072 302.636L294.148 302.585L294.205 302.436L294.986 302.633L295.059 302.742C295.144 302.762 295.227 302.79 295.306 302.827L295.358 302.903L295.661 303.187L295.712 303.263L295.844 303.458C295.995 303.676 296.077 303.934 296.077 304.2C296.09 304.253 296.095 304.308 296.093 304.363Z" fill="#C4D7CA"/>
<path d="M273.723 277.793L273.964 277.962L273.994 278.099C274.087 278.175 274.156 278.276 274.192 278.391L274.265 278.5L274.534 278.665L274.594 278.893C274.609 278.924 274.629 278.954 274.652 278.979L274.74 279.109L274.814 279.218C274.899 279.554 274.664 279.603 274.588 279.654C274.266 279.715 273.898 279.474 273.803 279.333C273.551 279.233 273.324 279.08 273.136 278.885C273.064 278.814 273.007 278.729 272.968 278.636L272.924 278.571L272.987 278.338L273.085 278.272C273.051 278.207 273.035 278.134 273.037 278.06C273.04 277.986 273.062 277.914 273.1 277.852C273.211 277.713 273.443 277.682 273.723 277.793Z" fill="#C4D7CA"/>
<path d="M258.179 234.622L258.252 234.73C258.461 235.015 258.47 235.356 258.032 235.478L257.946 235.537L257.466 235.341C257.295 235.273 257.145 235.163 257.028 235.021L257.16 235.216L257.015 235.235L257.138 235.231L257.446 235.686L257.316 235.773L257.208 235.847C257.129 235.986 257.026 236.11 256.902 236.211L256.805 236.277L256.627 236.224C256.49 236.236 256.353 236.215 256.225 236.164C256.098 236.114 255.984 236.034 255.892 235.932L255.714 235.832L255.582 235.637C255.455 235.488 255.364 235.313 255.314 235.124L255.248 235.026L255.228 234.834L255.211 234.388L255.341 234.395C255.432 234.306 255.543 234.241 255.665 234.205C255.787 234.169 255.915 234.164 256.04 234.19L256.181 234.237C256.334 234.302 256.472 234.396 256.59 234.513C256.722 234.572 256.846 234.647 256.961 234.735C256.97 234.746 256.979 234.758 256.988 234.769L256.93 234.503C256.958 234.451 256.999 234.407 257.048 234.373C257.097 234.34 257.153 234.319 257.212 234.313C257.272 234.272 257.341 234.246 257.413 234.238C257.485 234.231 257.558 234.242 257.625 234.27L257.935 234.471L258.015 234.59L258.179 234.622Z" fill="#C4D7CA"/>
<path d="M287.177 295.084L286.675 294.902L286.623 294.732C286.437 294.527 286.202 294.133 286.748 293.89L286.813 293.846L287.314 293.98L287.395 294.099L287.468 294.208C287.592 294.333 287.661 294.502 287.66 294.678C287.644 294.91 287.372 294.952 287.264 295.025L287.177 295.084Z" fill="#C4D7CA"/>
<path d="M282.219 291.84L282.059 291.79L282.023 291.736C281.839 291.709 281.665 291.637 281.517 291.526C281.448 291.461 281.399 291.378 281.373 291.287C281.347 291.196 281.347 291.099 281.372 291.008L281.43 290.511L281.626 290.52C281.772 290.533 281.914 290.57 282.048 290.63C282.176 290.545 282.322 290.49 282.474 290.467C282.565 290.452 282.652 290.425 282.735 290.386L282.821 290.327L283.33 290.472L283.462 290.667C283.489 290.696 283.511 290.729 283.528 290.765L283.713 290.829L283.779 290.926C283.813 290.966 283.843 291.01 283.867 291.056C283.902 291.095 283.931 291.139 283.955 291.186L284.17 291.293L284.243 291.402C284.293 291.489 284.326 291.584 284.339 291.684C284.359 291.702 284.374 291.724 284.383 291.749L284.42 291.803L284.396 292.024L284.32 292.075C284.243 292.153 284.151 292.215 284.05 292.259C283.971 292.375 283.778 292.348 283.713 292.392L283.659 292.428L283.118 292.352L283.03 292.222C282.816 292.041 282.58 291.888 282.327 291.767L282.219 291.84Z" fill="#C4D7CA"/>
<path d="M284.951 281.04L285.191 281.209C285.266 281.258 285.328 281.325 285.37 281.404C285.412 281.483 285.434 281.571 285.434 281.66C285.391 281.831 285.152 281.851 285.066 281.91L284.979 281.968L284.369 281.813L284.266 281.661C284.091 281.449 284.013 281.17 284.164 281.067C284.269 280.984 284.395 280.932 284.527 280.918C284.66 280.904 284.794 280.927 284.914 280.986L284.951 281.04Z" fill="#C4D7CA"/>
<path d="M232.931 212.031C232.867 212.124 232.771 212.19 232.661 212.218L232.573 212.088L232.354 212.394L232.118 212.302C231.791 212.165 231.496 211.961 231.254 211.702C231.016 211.44 230.869 211.108 230.834 210.755L230.797 210.701L231.025 210.547L231.09 210.503C231.231 210.502 231.37 210.468 231.495 210.402L231.571 210.351L232.12 210.579L232.193 210.688C232.32 210.787 232.438 210.898 232.544 211.019L232.698 211.246C232.749 211.332 232.806 211.415 232.866 211.495L232.903 211.549L233.013 211.712C233.025 211.824 232.996 211.938 232.931 212.031Z" fill="#C4D7CA"/>
<path d="M244.528 223.921C244.374 223.741 244.253 223.492 244.577 223.272L244.6 223.351L244.623 223.083L244.786 223.067C244.955 223.064 245.123 223.102 245.273 223.18C245.407 223.208 245.534 223.262 245.648 223.337L245.884 223.382L246.133 223.75L246.222 224.022C246.205 224.08 246.176 224.134 246.136 224.18C246.096 224.226 246.047 224.263 245.992 224.288L245.626 224.425L245.405 224.354L245.281 224.311L245.067 224.251C244.863 224.187 244.678 224.073 244.528 223.921Z" fill="#C4D7CA"/>
<path d="M11.7217 174.216C11.7211 174.316 11.6876 174.413 11.6263 174.492C11.6409 174.579 11.6365 174.668 11.6136 174.754C11.4859 174.338 11.3884 173.913 11.3219 173.483C11.4309 173.597 11.52 173.729 11.5857 173.873L11.6297 173.938C11.69 174.018 11.7223 174.115 11.7217 174.216Z" fill="#C4D7CA"/>
<path d="M38.5588 184.477L38.5783 184.669C38.6402 185.227 38.2886 185.244 37.9175 185.069C37.6867 185.045 37.4729 184.937 37.317 184.765L37.1705 184.548C37.1797 184.477 37.2124 184.41 37.2635 184.359L37.3739 184.079L37.4389 184.035C37.5935 184.003 37.7539 184.014 37.903 184.066C38.0521 184.118 38.1844 184.209 38.2859 184.33L38.5588 184.477Z" fill="#C4D7CA"/>
<path d="M69.7531 226.956L69.6881 227L69.7175 227.043C69.593 227.152 69.4423 227.227 69.2802 227.26C69.1772 227.289 69.0777 227.33 68.9837 227.382L68.8971 227.44L68.3594 227.299L68.2348 227.115C67.9351 226.765 67.9949 226.504 68.0598 226.46L68.3299 226.182L68.4496 226.196L68.5146 226.152C68.7132 226.107 68.9202 226.117 69.1135 226.181C69.3069 226.245 69.4792 226.36 69.6122 226.514L69.6782 226.612L69.7531 226.956Z" fill="#C4D7CA"/>
<path d="M87.4819 234.995C87.4336 235.05 87.3678 235.088 87.2954 235.102L87.2843 235.062L86.6657 234.754L86.5851 234.635C86.5315 234.572 86.4849 234.503 86.4458 234.429L86.4092 234.375L86.3286 234.256L86.642 233.949L86.8127 233.992C87.0317 234.064 87.2277 234.193 87.381 234.365C87.4954 234.479 87.5603 234.634 87.5616 234.795C87.5583 234.869 87.5302 234.939 87.4819 234.995Z" fill="#C4D7CA"/>
<path d="M40.9047 193.309L40.8741 193.077L40.8849 193.069C40.9357 192.995 41.0132 192.942 41.1015 192.923L41.2502 192.933C41.3792 192.938 41.5056 192.971 41.621 193.029C41.7364 193.087 41.8382 193.169 41.9198 193.269C41.9744 193.326 42.0189 193.392 42.0517 193.464L42.5101 193.675L42.6053 193.815C42.6306 193.866 42.6449 193.922 42.6473 193.978C42.6497 194.035 42.6402 194.092 42.6194 194.145C42.5986 194.197 42.5669 194.245 42.5264 194.285C42.4859 194.325 42.4375 194.356 42.3844 194.375L42.3086 194.427L41.8655 194.332L41.7996 194.234C41.741 194.169 41.6917 194.096 41.653 194.018L41.6091 193.953L41.3224 193.926L41.2271 193.785C41.1841 193.741 41.1493 193.69 41.1246 193.634C41.0304 193.541 40.9557 193.431 40.9047 193.309Z" fill="#C4D7CA"/>
<path d="M57.726 221.897C57.725 221.895 57.724 221.893 57.723 221.892L57.6499 221.901L57.7623 221.904L58.0627 222.348L57.9328 222.436L57.8245 222.509C57.7483 222.645 57.6485 222.766 57.5297 222.867L57.4214 222.94L57.2542 222.88C57.1174 222.892 56.9796 222.872 56.8521 222.821C56.7245 222.77 56.6106 222.69 56.5196 222.587L56.3413 222.487C56.2922 222.426 56.2481 222.36 56.2094 222.292C56.0703 222.152 55.9768 221.973 55.9411 221.779L55.821 221.718L55.8015 221.526L55.7839 221.08L55.9145 221.087C56.003 220.995 56.114 220.927 56.2366 220.892C56.3591 220.856 56.4888 220.852 56.6129 220.882L56.7547 220.928C56.9052 220.993 57.0379 221.092 57.1411 221.219C57.2817 221.265 57.4117 221.338 57.5233 221.434C57.5327 221.445 57.5417 221.456 57.5503 221.467L57.4927 221.203C57.5207 221.15 57.561 221.106 57.61 221.073C57.6591 221.039 57.7154 221.019 57.7742 221.012C57.8339 220.971 57.9031 220.945 57.9753 220.938C58.0475 220.93 58.1204 220.941 58.1873 220.969L58.497 221.17L58.5776 221.289L58.741 221.321L58.8509 221.483C59.0596 221.768 59.0692 222.109 58.6274 222.203L58.5408 222.261L58.0535 222.054C57.9552 222.009 57.8628 221.952 57.7778 221.886L57.726 221.897Z" fill="#C4D7CA"/>
<path style="mix-blend-mode:overlay" opacity="0.8" d="M413.506 241.575L33.9089 160.881C29.2572 159.815 24.3974 160.107 19.9066 161.721C11.8309 164.834 8.16629 172.366 14.1871 179.327L163.131 348.957C168.687 355.301 180.242 357.726 188.908 354.388L419.553 265.441C433.52 260.046 429.706 245.009 413.506 241.575ZM422.697 262.808C421.616 263.529 420.456 264.123 419.239 264.58L188.586 353.516C180.254 356.74 169.149 354.42 163.823 348.347L14.8791 178.716C13.9128 177.731 13.1698 176.55 12.7003 175.252C12.2307 173.955 12.0458 172.571 12.1579 171.196C12.4099 169.765 12.9676 168.405 13.7928 167.209C14.618 166.013 15.6915 165.009 16.9399 164.266C17.9919 163.566 19.1176 162.985 20.2966 162.531C24.624 160.987 29.3027 160.713 33.7807 161.741L413.316 242.461C420.681 244.012 426.067 248.356 427.085 253.476C427.77 257.054 426.173 260.456 422.697 262.808Z" fill="#353935"/>
</svg>
