<svg width="133" height="88" viewBox="0 0 133 88" fill="none" xmlns="http://www.w3.org/2000/svg">
<path d="M11.0002 15.4963C11.0002 42.8066 26.8168 55.9221 54.5359 57.7701C75.7431 59.1839 112.302 56.6072 115.843 29.6927C117.798 14.84 108.606 11.2461 95.4425 15.917C81.0659 21.0184 83.8302 49.9071 85.2421 61.5558C88.44 87.9379 110.41 86.5835 131.196 86.5835" stroke="#D83D3D" stroke-width="2" stroke-linecap="round"/>
<path d="M11.2812 7.17664L15.9817 13.9912C16.3492 14.5239 15.9649 15.2499 15.3177 15.2454L6.72429 15.1862C6.07709 15.1817 5.70279 14.4506 6.07759 13.9229L10.8716 7.17381C10.9721 7.03232 11.1827 7.03377 11.2812 7.17664Z" fill="#D83D3D"/>
</svg>
