<svg width="160" height="185" viewBox="0 0 160 185" fill="none" xmlns="http://www.w3.org/2000/svg">
<path d="M45.6085 170.628C42.6065 172.423 38.1628 169.639 35.5797 168.066C24.1098 161.079 24.6397 146.23 26.5812 134.458C31.3308 105.658 59.1874 83.2083 88.1956 84.6037C91.1796 84.7473 122.834 89.7088 119.592 98.101C113.198 114.651 86.3542 96.685 78.3279 91.6734C65.5742 83.7099 62.9609 61.931 67.8846 48.43C76.2483 25.4967 110.298 21.3556 130.982 21.4872" stroke="#1E1E1E" stroke-width="3" stroke-linecap="round"/>
<path d="M50.8353 172.621L43.5876 176.621C43.0209 176.934 42.3368 176.479 42.4055 175.836L43.318 167.291C43.3867 166.647 44.1514 166.347 44.6392 166.773L50.8788 172.213C51.0096 172.327 50.9872 172.537 50.8353 172.621Z" fill="#FDBA24"/>
</svg>
