<svg width="245" height="61" viewBox="0 0 245 61" fill="none" xmlns="http://www.w3.org/2000/svg">
<path d="M110.5 7.99994L109.343 9.63159L110.5 7.99994ZM231.815 24.975C232.906 24.801 233.649 23.7757 233.475 22.685C233.301 21.5942 232.276 20.851 231.185 21.025L231.815 24.975ZM4.01106 60.3102C15.3419 47.2425 34.2874 29.0516 54.2502 16.9346C64.233 10.8754 74.3606 6.40277 83.8407 4.78714C93.285 3.17763 101.983 4.41398 109.343 9.63159L111.657 6.3683C103.217 0.385907 93.3692 -0.894403 83.1687 0.843995C73.004 2.57629 62.3879 7.31614 52.1748 13.5152C31.746 25.915 12.4915 44.424 0.988937 57.6897L4.01106 60.3102ZM109.343 9.63159C125.609 21.1617 149.531 26.0227 172.533 27.5207C195.604 29.0233 218.104 27.162 231.815 24.975L231.185 21.025C217.729 23.1713 195.529 25.01 172.792 23.5292C149.986 22.0439 126.991 17.2382 111.657 6.3683L109.343 9.63159Z" fill="#F29407"/>
<path d="M236.71 23.1507L228.329 29.1611C227.803 29.5383 227.071 29.1673 227.063 28.5201L226.938 17.5939C226.931 16.9467 227.655 16.5591 228.189 16.9241L236.705 22.7411C236.848 22.839 236.851 23.0496 236.71 23.1507Z" fill="#F29407"/>
</svg>
